<?xml version="1.0" encoding="utf-8"?>
<!-- Generator: Adobe Illustrator 24.3.0, SVG Export Plug-In . SVG Version: 6.00 Build 0)  -->
<svg version="1.1" id="Layer_1" xmlns="http://www.w3.org/2000/svg" xmlns:xlink="http://www.w3.org/1999/xlink" x="0px" y="0px"
	 viewBox="0 0 4115 4000" style="enable-background:new 0 0 4115 4000;" xml:space="preserve">
<style type="text/css">
	.st0{fill:#FFFFFF;}
	.st1{clip-path:url(#SVGID_2_);fill:#FFFFFF;}
	.st2{clip-path:url(#SVGID_2_);fill:#FEFEFF;}
	.st3{clip-path:url(#SVGID_2_);fill:#FDFDFE;}
	.st4{clip-path:url(#SVGID_2_);fill:#FCFCFE;}
	.st5{clip-path:url(#SVGID_2_);fill:#FBFBFE;}
	.st6{clip-path:url(#SVGID_2_);fill:#FAFAFE;}
	.st7{clip-path:url(#SVGID_2_);fill:#F9F9FD;}
	.st8{clip-path:url(#SVGID_2_);fill:#F8F8FD;}
	.st9{clip-path:url(#SVGID_2_);fill:#F7F8FD;}
	.st10{clip-path:url(#SVGID_2_);fill:#F6F7FC;}
	.st11{clip-path:url(#SVGID_2_);fill:#F5F6FC;}
	.st12{clip-path:url(#SVGID_2_);fill:#F4F5FC;}
	.st13{clip-path:url(#SVGID_2_);fill:#F3F4FB;}
	.st14{clip-path:url(#SVGID_2_);fill:#F2F3FB;}
	.st15{clip-path:url(#SVGID_2_);fill:#F1F2FB;}
	.st16{clip-path:url(#SVGID_2_);fill:#F0F1FB;}
	.st17{clip-path:url(#SVGID_2_);fill:#EFF0FA;}
	.st18{clip-path:url(#SVGID_2_);fill:#EEEFFA;}
	.st19{clip-path:url(#SVGID_2_);fill:#EDEEFA;}
	.st20{clip-path:url(#SVGID_4_);}
	.st21{clip-path:url(#SVGID_6_);fill:#8D8EE8;}
	.st22{clip-path:url(#SVGID_6_);fill:#8E8FE9;}
	.st23{clip-path:url(#SVGID_6_);fill:#8E90E9;}
	.st24{clip-path:url(#SVGID_6_);fill:#8F91EA;}
	.st25{clip-path:url(#SVGID_6_);fill:#8F92EA;}
	.st26{clip-path:url(#SVGID_6_);fill:#9093EB;}
	.st27{clip-path:url(#SVGID_6_);fill:#9094EB;}
	.st28{clip-path:url(#SVGID_6_);fill:#9196EC;}
	.st29{clip-path:url(#SVGID_6_);fill:#9297EC;}
	.st30{clip-path:url(#SVGID_6_);fill:#9298ED;}
	.st31{clip-path:url(#SVGID_6_);fill:#9399ED;}
	.st32{clip-path:url(#SVGID_6_);fill:#939AEE;}
	.st33{clip-path:url(#SVGID_6_);fill:#949BEE;}
	.st34{clip-path:url(#SVGID_6_);fill:#949CEF;}
	.st35{clip-path:url(#SVGID_6_);fill:#959DEF;}
	.st36{clip-path:url(#SVGID_6_);fill:#959EF0;}
	.st37{clip-path:url(#SVGID_6_);fill:#969FF0;}
	.st38{clip-path:url(#SVGID_6_);fill:#96A0F1;}
	.st39{clip-path:url(#SVGID_6_);fill:#97A1F1;}
	.st40{clip-path:url(#SVGID_6_);fill:#97A2F2;}
	.st41{clip-path:url(#SVGID_6_);fill:#98A3F2;}
	.st42{clip-path:url(#SVGID_6_);fill:#99A4F3;}
	.st43{clip-path:url(#SVGID_6_);fill:#99A5F3;}
	.st44{clip-path:url(#SVGID_6_);fill:#9AA6F4;}
	.st45{clip-path:url(#SVGID_6_);fill:#9AA7F4;}
	.st46{clip-path:url(#SVGID_6_);fill:#9BA8F5;}
	.st47{clip-path:url(#SVGID_6_);fill:#9BA9F5;}
	.st48{clip-path:url(#SVGID_6_);fill:#9CAAF6;}
	.st49{clip-path:url(#SVGID_6_);fill:#9CABF6;}
	.st50{clip-path:url(#SVGID_6_);fill:#9DACF7;}
	.st51{clip-path:url(#SVGID_6_);fill:#9DADF7;}
	.st52{clip-path:url(#SVGID_6_);fill:#9EAEF8;}
	.st53{clip-path:url(#SVGID_6_);fill:#9EAFF8;}
	.st54{clip-path:url(#SVGID_6_);fill:#9FB0F9;}
	.st55{clip-path:url(#SVGID_6_);fill:#A0B1F9;}
	.st56{clip-path:url(#SVGID_6_);fill:#A0B2FA;}
	.st57{clip-path:url(#SVGID_6_);fill:#A1B3FA;}
	.st58{clip-path:url(#SVGID_6_);fill:#A1B4FB;}
	.st59{clip-path:url(#SVGID_6_);fill:#A2B5FB;}
	.st60{clip-path:url(#SVGID_6_);fill:#A2B6FC;}
	.st61{clip-path:url(#SVGID_6_);fill:#A3B7FC;}
	.st62{clip-path:url(#SVGID_6_);fill:#A3B8FD;}
	.st63{clip-path:url(#SVGID_6_);fill:#A4B9FD;}
	.st64{clip-path:url(#SVGID_6_);fill:#A4BAFE;}
	.st65{clip-path:url(#SVGID_6_);fill:#A5BBFE;}
	.st66{clip-path:url(#SVGID_6_);fill:#A5BCFF;}
	.st67{clip-path:url(#SVGID_6_);fill:#A6BDFF;}
	.st68{clip-path:url(#SVGID_8_);fill:#7C6ED8;}
	.st69{clip-path:url(#SVGID_8_);fill:#7D6FD9;}
	.st70{clip-path:url(#SVGID_8_);fill:#7D70D9;}
	.st71{clip-path:url(#SVGID_8_);fill:#7E71DA;}
	.st72{clip-path:url(#SVGID_8_);fill:#7E72DA;}
	.st73{clip-path:url(#SVGID_8_);fill:#7F73DB;}
	.st74{clip-path:url(#SVGID_8_);fill:#7F74DB;}
	.st75{clip-path:url(#SVGID_8_);fill:#8075DC;}
	.st76{clip-path:url(#SVGID_8_);fill:#8076DC;}
	.st77{clip-path:url(#SVGID_8_);fill:#8177DD;}
	.st78{clip-path:url(#SVGID_8_);fill:#8178DD;}
	.st79{clip-path:url(#SVGID_8_);fill:#8279DE;}
	.st80{clip-path:url(#SVGID_8_);fill:#827ADE;}
	.st81{clip-path:url(#SVGID_8_);fill:#837BDF;}
	.st82{clip-path:url(#SVGID_8_);fill:#847CDF;}
	.st83{clip-path:url(#SVGID_8_);fill:#847DE0;}
	.st84{clip-path:url(#SVGID_8_);fill:#857EE0;}
	.st85{clip-path:url(#SVGID_8_);fill:#857FE1;}
	.st86{clip-path:url(#SVGID_8_);fill:#8680E1;}
	.st87{clip-path:url(#SVGID_8_);fill:#8681E2;}
	.st88{clip-path:url(#SVGID_8_);fill:#8782E2;}
	.st89{clip-path:url(#SVGID_8_);fill:#8783E3;}
	.st90{clip-path:url(#SVGID_8_);fill:#8884E3;}
	.st91{clip-path:url(#SVGID_8_);fill:#8885E4;}
	.st92{clip-path:url(#SVGID_8_);fill:#8986E4;}
	.st93{clip-path:url(#SVGID_8_);fill:#8987E5;}
	.st94{clip-path:url(#SVGID_8_);fill:#8A88E5;}
	.st95{clip-path:url(#SVGID_8_);fill:#8B89E6;}
	.st96{clip-path:url(#SVGID_8_);fill:#8B8AE6;}
	.st97{clip-path:url(#SVGID_8_);fill:#8C8BE7;}
	.st98{clip-path:url(#SVGID_8_);fill:#8C8CE7;}
	.st99{clip-path:url(#SVGID_10_);fill:#FDFDFE;}
	.st100{clip-path:url(#SVGID_10_);fill:#FCFCFE;}
	.st101{clip-path:url(#SVGID_10_);fill:#FBFBFE;}
	.st102{clip-path:url(#SVGID_10_);fill:#FAFAFE;}
	.st103{clip-path:url(#SVGID_10_);fill:#F9F9FD;}
	.st104{clip-path:url(#SVGID_10_);fill:#F8F8FD;}
	.st105{clip-path:url(#SVGID_10_);fill:#F7F8FD;}
	.st106{clip-path:url(#SVGID_10_);fill:#F6F7FC;}
	.st107{clip-path:url(#SVGID_10_);fill:#F5F6FC;}
	.st108{clip-path:url(#SVGID_10_);fill:#F4F5FC;}
	.st109{clip-path:url(#SVGID_10_);fill:#F3F4FB;}
	.st110{clip-path:url(#SVGID_10_);fill:#F2F3FB;}
	.st111{clip-path:url(#SVGID_10_);fill:#F1F2FB;}
	.st112{fill:#5C49D8;}
	.st113{clip-path:url(#SVGID_12_);fill:#FBFBFE;}
	.st114{clip-path:url(#SVGID_12_);fill:#FAFAFE;}
	.st115{clip-path:url(#SVGID_12_);fill:#F9F9FD;}
	.st116{clip-path:url(#SVGID_12_);fill:#F8F8FD;}
	.st117{clip-path:url(#SVGID_12_);fill:#F7F8FD;}
	.st118{clip-path:url(#SVGID_12_);fill:#F6F7FC;}
	.st119{clip-path:url(#SVGID_12_);fill:#F5F6FC;}
	.st120{clip-path:url(#SVGID_12_);fill:#F4F5FC;}
	.st121{clip-path:url(#SVGID_12_);fill:#F3F4FB;}
	.st122{clip-path:url(#SVGID_12_);fill:#F2F3FB;}
	.st123{clip-path:url(#SVGID_12_);fill:#F1F2FB;}
	.st124{clip-path:url(#SVGID_12_);fill:#F0F1FB;}
	.st125{clip-path:url(#SVGID_12_);fill:#EFF0FA;}
	.st126{clip-path:url(#SVGID_12_);fill:#EEEFFA;}
	.st127{clip-path:url(#SVGID_12_);fill:#EDEEFA;}
	.st128{clip-path:url(#SVGID_14_);fill:#F995BD;}
	.st129{clip-path:url(#SVGID_14_);fill:#F994BD;}
	.st130{clip-path:url(#SVGID_14_);fill:#F993BC;}
	.st131{clip-path:url(#SVGID_14_);fill:#F992BC;}
	.st132{clip-path:url(#SVGID_14_);fill:#F991BB;}
	.st133{clip-path:url(#SVGID_14_);fill:#F990BA;}
	.st134{clip-path:url(#SVGID_14_);fill:#F98FBA;}
	.st135{clip-path:url(#SVGID_14_);fill:#F98EB9;}
	.st136{clip-path:url(#SVGID_14_);fill:#F98DB9;}
	.st137{clip-path:url(#SVGID_14_);fill:#F98CB8;}
	.st138{clip-path:url(#SVGID_14_);fill:#F98AB7;}
	.st139{clip-path:url(#SVGID_14_);fill:#F989B7;}
	.st140{clip-path:url(#SVGID_14_);fill:#F988B6;}
	.st141{clip-path:url(#SVGID_14_);fill:#F987B6;}
	.st142{clip-path:url(#SVGID_14_);fill:#F986B5;}
	.st143{clip-path:url(#SVGID_14_);fill:#F985B4;}
	.st144{clip-path:url(#SVGID_14_);fill:#F984B4;}
	.st145{clip-path:url(#SVGID_14_);fill:#F983B3;}
	.st146{clip-path:url(#SVGID_14_);fill:#F982B3;}
	.st147{clip-path:url(#SVGID_14_);fill:#F981B2;}
	.st148{clip-path:url(#SVGID_14_);fill:#F980B1;}
	.st149{clip-path:url(#SVGID_14_);fill:#F97FB1;}
	.st150{clip-path:url(#SVGID_14_);fill:#F97EB0;}
	.st151{clip-path:url(#SVGID_14_);fill:#F97DB0;}
	.st152{clip-path:url(#SVGID_14_);fill:#F97CAF;}
	.st153{clip-path:url(#SVGID_14_);fill:#F97BAF;}
	.st154{clip-path:url(#SVGID_14_);fill:#F97AAE;}
	.st155{clip-path:url(#SVGID_14_);fill:#F979AD;}
	.st156{clip-path:url(#SVGID_14_);fill:#F978AD;}
	.st157{clip-path:url(#SVGID_14_);fill:#F977AC;}
	.st158{clip-path:url(#SVGID_14_);fill:#F976AC;}
	.st159{clip-path:url(#SVGID_14_);fill:#F975AB;}
	.st160{clip-path:url(#SVGID_14_);fill:#F974AA;}
	.st161{clip-path:url(#SVGID_14_);fill:#F973AA;}
	.st162{clip-path:url(#SVGID_14_);fill:#F972A9;}
	.st163{clip-path:url(#SVGID_14_);fill:#F971A9;}
	.st164{clip-path:url(#SVGID_14_);fill:#F970A8;}
	.st165{clip-path:url(#SVGID_14_);fill:#F96FA7;}
	.st166{clip-path:url(#SVGID_14_);fill:#F96EA7;}
	.st167{clip-path:url(#SVGID_14_);fill:#F96DA6;}
	.st168{clip-path:url(#SVGID_14_);fill:#F96CA6;}
	.st169{clip-path:url(#SVGID_14_);fill:#F96BA5;}
	.st170{clip-path:url(#SVGID_14_);fill:#F96AA4;}
	.st171{clip-path:url(#SVGID_14_);fill:#F969A4;}
	.st172{clip-path:url(#SVGID_14_);fill:#F968A3;}
	.st173{clip-path:url(#SVGID_14_);fill:#F967A3;}
	.st174{clip-path:url(#SVGID_14_);fill:#F966A2;}
	.st175{clip-path:url(#SVGID_14_);fill:#F965A1;}
	.st176{clip-path:url(#SVGID_14_);fill:#F964A1;}
	.st177{clip-path:url(#SVGID_14_);fill:#F963A0;}
	.st178{clip-path:url(#SVGID_14_);fill:#F962A0;}
	.st179{clip-path:url(#SVGID_14_);fill:#F9619F;}
	.st180{clip-path:url(#SVGID_14_);fill:#F9609F;}
	.st181{clip-path:url(#SVGID_14_);fill:#F95F9E;}
	.st182{clip-path:url(#SVGID_14_);fill:#F95E9D;}
	.st183{clip-path:url(#SVGID_14_);fill:#F95D9D;}
	.st184{clip-path:url(#SVGID_14_);fill:#F95C9C;}
	.st185{clip-path:url(#SVGID_14_);fill:#F95B9C;}
	.st186{clip-path:url(#SVGID_14_);fill:#F95A9B;}
	.st187{clip-path:url(#SVGID_14_);fill:#F9599A;}
	.st188{clip-path:url(#SVGID_14_);fill:#F9589A;}
	.st189{clip-path:url(#SVGID_14_);fill:#F95799;}
	.st190{clip-path:url(#SVGID_14_);fill:#F95699;}
	.st191{clip-path:url(#SVGID_14_);fill:#F95598;}
	.st192{clip-path:url(#SVGID_16_);fill:#F9F9FD;}
	.st193{clip-path:url(#SVGID_16_);fill:#F8F8FD;}
	.st194{clip-path:url(#SVGID_16_);fill:#F7F8FD;}
	.st195{clip-path:url(#SVGID_16_);fill:#F6F7FC;}
	.st196{clip-path:url(#SVGID_16_);fill:#F5F6FC;}
	.st197{clip-path:url(#SVGID_16_);fill:#F4F5FC;}
	.st198{clip-path:url(#SVGID_16_);fill:#F3F4FB;}
	.st199{clip-path:url(#SVGID_16_);fill:#F2F3FB;}
	.st200{clip-path:url(#SVGID_16_);fill:#F1F2FB;}
	.st201{clip-path:url(#SVGID_16_);fill:#F0F1FB;}
	.st202{clip-path:url(#SVGID_16_);fill:#EFF0FA;}
	.st203{clip-path:url(#SVGID_16_);fill:#EEEFFA;}
	.st204{clip-path:url(#SVGID_16_);fill:#EDEEFA;}
	.st205{clip-path:url(#SVGID_16_);fill:#ECEDF9;}
	.st206{clip-path:url(#SVGID_16_);fill:#EBECF9;}
	.st207{clip-path:url(#SVGID_16_);fill:#EAEBF9;}
	.st208{clip-path:url(#SVGID_16_);fill:#E9EBF8;}
	.st209{clip-path:url(#SVGID_16_);fill:#E8EAF8;}
	.st210{clip-path:url(#SVGID_16_);fill:#E7E9F8;}
	.st211{clip-path:url(#SVGID_16_);fill:#E6E8F8;}
	.st212{clip-path:url(#SVGID_16_);fill:#E5E7F7;}
	.st213{clip-path:url(#SVGID_16_);fill:#E4E6F7;}
	.st214{clip-path:url(#SVGID_16_);fill:#E3E5F7;}
	.st215{clip-path:url(#SVGID_16_);fill:#E2E4F6;}
	.st216{clip-path:url(#SVGID_16_);fill:#E1E3F6;}
	.st217{clip-path:url(#SVGID_16_);fill:#E0E2F6;}
	.st218{clip-path:url(#SVGID_16_);fill:#DFE1F6;}
	.st219{clip-path:url(#SVGID_16_);fill:#DEE0F5;}
	.st220{clip-path:url(#SVGID_16_);fill:#DDDFF5;}
	.st221{clip-path:url(#SVGID_16_);fill:#DCDEF5;}
	.st222{clip-path:url(#SVGID_16_);fill:#DADEF4;}
	.st223{clip-path:url(#SVGID_16_);fill:#D9DDF4;}
	.st224{clip-path:url(#SVGID_16_);fill:#D8DCF4;}
	.st225{clip-path:url(#SVGID_16_);fill:#D7DBF3;}
	.st226{clip-path:url(#SVGID_16_);fill:#D6DAF3;}
	.st227{clip-path:url(#SVGID_16_);fill:#D5D9F3;}
	.st228{clip-path:url(#SVGID_16_);fill:#D4D8F3;}
	.st229{clip-path:url(#SVGID_16_);fill:#D3D7F2;}
	.st230{clip-path:url(#SVGID_16_);fill:#D2D6F2;}
	.st231{clip-path:url(#SVGID_16_);fill:#D1D5F2;}
	.st232{clip-path:url(#SVGID_16_);fill:#D0D4F1;}
	.st233{clip-path:url(#SVGID_16_);fill:#CFD3F1;}
	.st234{clip-path:url(#SVGID_16_);fill:#CED2F1;}
	.st235{clip-path:url(#SVGID_16_);fill:#CDD1F1;}
	.st236{clip-path:url(#SVGID_16_);fill:#CCD1F0;}
	.st237{clip-path:url(#SVGID_16_);fill:#CBD0F0;}
	.st238{clip-path:url(#SVGID_16_);fill:#CACFF0;}
	.st239{clip-path:url(#SVGID_16_);fill:#C9CEEF;}
	.st240{clip-path:url(#SVGID_16_);fill:#C8CDEF;}
	.st241{clip-path:url(#SVGID_16_);fill:#C7CCEF;}
	.st242{clip-path:url(#SVGID_16_);fill:#C6CBEE;}
	.st243{clip-path:url(#SVGID_16_);fill:#C5CAEE;}
	.st244{clip-path:url(#SVGID_18_);fill:#F8F8FD;}
	.st245{clip-path:url(#SVGID_18_);fill:#F7F8FD;}
	.st246{clip-path:url(#SVGID_18_);fill:#F6F7FC;}
	.st247{clip-path:url(#SVGID_18_);fill:#F5F6FC;}
	.st248{clip-path:url(#SVGID_18_);fill:#F4F5FC;}
	.st249{clip-path:url(#SVGID_18_);fill:#F3F4FB;}
	.st250{clip-path:url(#SVGID_18_);fill:#F2F3FB;}
	.st251{clip-path:url(#SVGID_18_);fill:#F1F2FB;}
	.st252{clip-path:url(#SVGID_18_);fill:#F0F1FB;}
	.st253{clip-path:url(#SVGID_18_);fill:#EFF0FA;}
	.st254{clip-path:url(#SVGID_18_);fill:#EEEFFA;}
	.st255{clip-path:url(#SVGID_18_);fill:#EDEEFA;}
	.st256{clip-path:url(#SVGID_18_);fill:#ECEDF9;}
	.st257{clip-path:url(#SVGID_18_);fill:#EBECF9;}
	.st258{clip-path:url(#SVGID_18_);fill:#EAEBF9;}
	.st259{clip-path:url(#SVGID_18_);fill:#E9EBF8;}
	.st260{clip-path:url(#SVGID_18_);fill:#E8EAF8;}
	.st261{clip-path:url(#SVGID_18_);fill:#E7E9F8;}
	.st262{clip-path:url(#SVGID_18_);fill:#E6E8F8;}
	.st263{clip-path:url(#SVGID_18_);fill:#E5E7F7;}
	.st264{clip-path:url(#SVGID_18_);fill:#E4E6F7;}
	.st265{clip-path:url(#SVGID_18_);fill:#E3E5F7;}
	.st266{clip-path:url(#SVGID_18_);fill:#E2E4F6;}
	.st267{clip-path:url(#SVGID_18_);fill:#E1E3F6;}
	.st268{clip-path:url(#SVGID_18_);fill:#E0E2F6;}
	.st269{clip-path:url(#SVGID_18_);fill:#DFE1F6;}
	.st270{clip-path:url(#SVGID_18_);fill:#DEE0F5;}
	.st271{clip-path:url(#SVGID_18_);fill:#DDDFF5;}
	.st272{clip-path:url(#SVGID_18_);fill:#DCDEF5;}
	.st273{clip-path:url(#SVGID_18_);fill:#DADEF4;}
	.st274{clip-path:url(#SVGID_18_);fill:#D9DDF4;}
	.st275{clip-path:url(#SVGID_18_);fill:#D8DCF4;}
	.st276{clip-path:url(#SVGID_18_);fill:#D7DBF3;}
	.st277{clip-path:url(#SVGID_18_);fill:#D6DAF3;}
	.st278{clip-path:url(#SVGID_18_);fill:#D5D9F3;}
	.st279{clip-path:url(#SVGID_18_);fill:#D4D8F3;}
	.st280{clip-path:url(#SVGID_18_);fill:#D3D7F2;}
	.st281{clip-path:url(#SVGID_18_);fill:#D2D6F2;}
	.st282{clip-path:url(#SVGID_18_);fill:#D1D5F2;}
	.st283{clip-path:url(#SVGID_18_);fill:#D0D4F1;}
	.st284{clip-path:url(#SVGID_18_);fill:#CFD3F1;}
	.st285{clip-path:url(#SVGID_18_);fill:#CED2F1;}
	.st286{clip-path:url(#SVGID_18_);fill:#CDD1F1;}
	.st287{clip-path:url(#SVGID_18_);fill:#CCD1F0;}
	.st288{clip-path:url(#SVGID_18_);fill:#CBD0F0;}
	.st289{clip-path:url(#SVGID_18_);fill:#CACFF0;}
	.st290{clip-path:url(#SVGID_18_);fill:#C9CEEF;}
	.st291{clip-path:url(#SVGID_18_);fill:#C8CDEF;}
	.st292{clip-path:url(#SVGID_18_);fill:#C7CCEF;}
	.st293{clip-path:url(#SVGID_18_);fill:#C6CBEE;}
	.st294{clip-path:url(#SVGID_18_);fill:#C5CAEE;}
	.st295{clip-path:url(#SVGID_20_);fill:#F8F8FD;}
	.st296{clip-path:url(#SVGID_20_);fill:#F7F8FD;}
	.st297{clip-path:url(#SVGID_20_);fill:#F6F7FC;}
	.st298{clip-path:url(#SVGID_20_);fill:#F5F6FC;}
	.st299{clip-path:url(#SVGID_20_);fill:#F4F5FC;}
	.st300{clip-path:url(#SVGID_20_);fill:#F3F4FB;}
	.st301{clip-path:url(#SVGID_20_);fill:#F2F3FB;}
	.st302{clip-path:url(#SVGID_20_);fill:#F1F2FB;}
	.st303{clip-path:url(#SVGID_20_);fill:#F0F1FB;}
	.st304{clip-path:url(#SVGID_20_);fill:#EFF0FA;}
	.st305{clip-path:url(#SVGID_20_);fill:#EEEFFA;}
	.st306{clip-path:url(#SVGID_20_);fill:#EDEEFA;}
	.st307{clip-path:url(#SVGID_20_);fill:#ECEDF9;}
	.st308{clip-path:url(#SVGID_20_);fill:#EBECF9;}
	.st309{clip-path:url(#SVGID_20_);fill:#EAEBF9;}
	.st310{clip-path:url(#SVGID_20_);fill:#E9EBF8;}
	.st311{clip-path:url(#SVGID_20_);fill:#E8EAF8;}
	.st312{clip-path:url(#SVGID_20_);fill:#E7E9F8;}
	.st313{clip-path:url(#SVGID_20_);fill:#E6E8F8;}
	.st314{clip-path:url(#SVGID_20_);fill:#E5E7F7;}
	.st315{clip-path:url(#SVGID_20_);fill:#E4E6F7;}
	.st316{clip-path:url(#SVGID_20_);fill:#E3E5F7;}
	.st317{clip-path:url(#SVGID_20_);fill:#E2E4F6;}
	.st318{clip-path:url(#SVGID_20_);fill:#E1E3F6;}
	.st319{clip-path:url(#SVGID_20_);fill:#E0E2F6;}
	.st320{clip-path:url(#SVGID_20_);fill:#DFE1F6;}
	.st321{clip-path:url(#SVGID_20_);fill:#DEE0F5;}
	.st322{clip-path:url(#SVGID_20_);fill:#DDDFF5;}
	.st323{clip-path:url(#SVGID_20_);fill:#DCDEF5;}
	.st324{clip-path:url(#SVGID_20_);fill:#DADEF4;}
	.st325{clip-path:url(#SVGID_20_);fill:#D9DDF4;}
	.st326{clip-path:url(#SVGID_20_);fill:#D8DCF4;}
	.st327{clip-path:url(#SVGID_20_);fill:#D7DBF3;}
	.st328{clip-path:url(#SVGID_20_);fill:#D6DAF3;}
	.st329{clip-path:url(#SVGID_20_);fill:#D5D9F3;}
	.st330{clip-path:url(#SVGID_20_);fill:#D4D8F3;}
	.st331{clip-path:url(#SVGID_20_);fill:#D3D7F2;}
	.st332{clip-path:url(#SVGID_20_);fill:#D2D6F2;}
	.st333{clip-path:url(#SVGID_20_);fill:#D1D5F2;}
	.st334{clip-path:url(#SVGID_20_);fill:#D0D4F1;}
	.st335{clip-path:url(#SVGID_20_);fill:#CFD3F1;}
	.st336{clip-path:url(#SVGID_20_);fill:#CED2F1;}
	.st337{clip-path:url(#SVGID_20_);fill:#CDD1F1;}
	.st338{clip-path:url(#SVGID_20_);fill:#CCD1F0;}
	.st339{clip-path:url(#SVGID_20_);fill:#CBD0F0;}
	.st340{clip-path:url(#SVGID_20_);fill:#CACFF0;}
	.st341{clip-path:url(#SVGID_20_);fill:#C9CEEF;}
	.st342{clip-path:url(#SVGID_20_);fill:#C8CDEF;}
	.st343{clip-path:url(#SVGID_20_);fill:#C7CCEF;}
	.st344{clip-path:url(#SVGID_20_);fill:#C6CBEE;}
	.st345{clip-path:url(#SVGID_20_);fill:#C5CAEE;}
	.st346{clip-path:url(#SVGID_22_);fill:#7C6ED8;}
	.st347{clip-path:url(#SVGID_22_);fill:#7D6FD9;}
	.st348{clip-path:url(#SVGID_22_);fill:#7D70D9;}
	.st349{clip-path:url(#SVGID_22_);fill:#7E71DA;}
	.st350{clip-path:url(#SVGID_22_);fill:#7E72DA;}
	.st351{clip-path:url(#SVGID_22_);fill:#7F73DB;}
	.st352{clip-path:url(#SVGID_22_);fill:#7F74DB;}
	.st353{clip-path:url(#SVGID_22_);fill:#8075DC;}
	.st354{clip-path:url(#SVGID_22_);fill:#8076DC;}
	.st355{clip-path:url(#SVGID_22_);fill:#8177DD;}
	.st356{clip-path:url(#SVGID_22_);fill:#8178DD;}
	.st357{clip-path:url(#SVGID_22_);fill:#8279DE;}
	.st358{clip-path:url(#SVGID_22_);fill:#827ADE;}
	.st359{clip-path:url(#SVGID_22_);fill:#837BDF;}
	.st360{clip-path:url(#SVGID_22_);fill:#847CDF;}
	.st361{clip-path:url(#SVGID_22_);fill:#847DE0;}
	.st362{clip-path:url(#SVGID_22_);fill:#857EE0;}
	.st363{clip-path:url(#SVGID_22_);fill:#857FE1;}
	.st364{clip-path:url(#SVGID_22_);fill:#8680E1;}
	.st365{clip-path:url(#SVGID_22_);fill:#8681E2;}
	.st366{clip-path:url(#SVGID_22_);fill:#8782E2;}
	.st367{clip-path:url(#SVGID_22_);fill:#8783E3;}
	.st368{clip-path:url(#SVGID_22_);fill:#8884E3;}
	.st369{clip-path:url(#SVGID_22_);fill:#8885E4;}
	.st370{clip-path:url(#SVGID_22_);fill:#8986E4;}
	.st371{clip-path:url(#SVGID_22_);fill:#8987E5;}
	.st372{clip-path:url(#SVGID_22_);fill:#8A88E5;}
	.st373{clip-path:url(#SVGID_22_);fill:#8B89E6;}
	.st374{clip-path:url(#SVGID_22_);fill:#8B8AE6;}
	.st375{clip-path:url(#SVGID_22_);fill:#8C8BE7;}
	.st376{clip-path:url(#SVGID_22_);fill:#8C8CE7;}
	.st377{clip-path:url(#SVGID_22_);fill:#8D8DE8;}
	.st378{clip-path:url(#SVGID_22_);fill:#8D8EE8;}
	.st379{clip-path:url(#SVGID_22_);fill:#8E8FE9;}
	.st380{clip-path:url(#SVGID_22_);fill:#8E90E9;}
	.st381{clip-path:url(#SVGID_22_);fill:#8F91EA;}
	.st382{clip-path:url(#SVGID_22_);fill:#8F92EA;}
	.st383{clip-path:url(#SVGID_22_);fill:#9093EB;}
	.st384{clip-path:url(#SVGID_22_);fill:#9094EB;}
	.st385{clip-path:url(#SVGID_22_);fill:#9196EC;}
	.st386{clip-path:url(#SVGID_22_);fill:#9297EC;}
	.st387{clip-path:url(#SVGID_22_);fill:#9298ED;}
	.st388{clip-path:url(#SVGID_22_);fill:#9399ED;}
	.st389{clip-path:url(#SVGID_22_);fill:#939AEE;}
	.st390{clip-path:url(#SVGID_22_);fill:#949BEE;}
	.st391{clip-path:url(#SVGID_22_);fill:#949CEF;}
	.st392{clip-path:url(#SVGID_22_);fill:#959DEF;}
	.st393{clip-path:url(#SVGID_22_);fill:#959EF0;}
	.st394{clip-path:url(#SVGID_22_);fill:#969FF0;}
	.st395{clip-path:url(#SVGID_22_);fill:#96A0F1;}
	.st396{clip-path:url(#SVGID_22_);fill:#97A1F1;}
	.st397{clip-path:url(#SVGID_22_);fill:#97A2F2;}
	.st398{clip-path:url(#SVGID_22_);fill:#98A3F2;}
	.st399{clip-path:url(#SVGID_22_);fill:#99A4F3;}
	.st400{clip-path:url(#SVGID_22_);fill:#99A5F3;}
	.st401{opacity:0.2;}
	.st402{fill:#FCC5B6;}
	.st403{fill:#1A1A1A;}
	.st404{fill:#382A73;}
	.st405{fill:#A6BDFF;}
</style>
<g>
	<path class="st0" d="M4051.7,2639H63.3c-35,0-63.3-28.3-63.3-63.3V81.1c0-35,28.3-63.3,63.3-63.3h3988.4c35,0,63.3,28.3,63.3,63.3
		v2494.6C4115,2610.7,4086.7,2639,4051.7,2639z"/>
</g>
<g>
	<g>
		<g>
			<g>
				<defs>
					<circle id="SVGID_1_" cx="2118.3" cy="886" r="527.6"/>
				</defs>
				<clipPath id="SVGID_2_">
					<use xlink:href="#SVGID_1_"  style="overflow:visible;"/>
				</clipPath>
				<polygon class="st1" points="1590.7,1269.8 2645.8,1272.7 2645.8,1413.6 1590.7,1413.6 				"/>
				<polygon class="st1" points="1590.7,1219.3 2645.8,1222.3 2645.8,1272.7 1590.7,1269.8 				"/>
				<polygon class="st2" points="1590.7,1168.8 2645.8,1171.8 2645.8,1222.3 1590.7,1219.3 				"/>
				<polygon class="st3" points="1590.7,1118.3 2645.8,1121.3 2645.8,1171.8 1590.7,1168.8 				"/>
				<polygon class="st4" points="1590.7,1067.9 2645.8,1070.8 2645.8,1121.3 1590.7,1118.3 				"/>
				<polygon class="st5" points="1590.7,1017.4 2645.8,1020.4 2645.8,1070.8 1590.7,1067.9 				"/>
				<polygon class="st6" points="1590.7,966.9 2645.8,969.9 2645.8,1020.4 1590.7,1017.4 				"/>
				<polygon class="st7" points="1590.7,916.5 2645.8,919.4 2645.8,969.9 1590.7,966.9 				"/>
				<polygon class="st8" points="1590.7,866 2645.8,869 2645.8,919.4 1590.7,916.5 				"/>
				<polygon class="st9" points="1590.7,815.5 2645.8,818.5 2645.8,869 1590.7,866 				"/>
				<polygon class="st10" points="1590.7,765 2645.8,768 2645.8,818.5 1590.7,815.5 				"/>
				<polygon class="st11" points="1590.7,714.6 2645.8,717.5 2645.8,768 1590.7,765 				"/>
				<polygon class="st12" points="1590.7,664.1 2645.8,667.1 2645.8,717.5 1590.7,714.6 				"/>
				<polygon class="st13" points="1590.7,613.6 2645.8,616.6 2645.8,667.1 1590.7,664.1 				"/>
				<polygon class="st14" points="1590.7,563.2 2645.8,566.1 2645.8,616.6 1590.7,613.6 				"/>
				<polygon class="st15" points="1590.7,512.7 2645.8,515.7 2645.8,566.1 1590.7,563.2 				"/>
				<polygon class="st16" points="1590.7,462.2 2645.8,465.2 2645.8,515.7 1590.7,512.7 				"/>
				<polygon class="st17" points="1590.7,411.8 2645.8,414.7 2645.8,465.2 1590.7,462.2 				"/>
				<polygon class="st18" points="1590.7,361.3 2645.8,364.3 2645.8,414.7 1590.7,411.8 				"/>
				<polygon class="st19" points="2645.8,364.3 1590.7,361.3 1590.7,358.5 2645.8,358.5 				"/>
			</g>
		</g>
		<g>
			<defs>
				<circle id="SVGID_3_" cx="2118.3" cy="886" r="527.6"/>
			</defs>
			<clipPath id="SVGID_4_">
				<use xlink:href="#SVGID_3_"  style="overflow:visible;"/>
			</clipPath>
			<g class="st20">
				<g>
					<g>
						<defs>
							<ellipse id="SVGID_5_" cx="2118.3" cy="1540" rx="513" ry="544.6"/>
						</defs>
						<clipPath id="SVGID_6_">
							<use xlink:href="#SVGID_5_"  style="overflow:visible;"/>
						</clipPath>
						<polygon class="st21" points="1663.7,995.4 1605.3,996.4 1605.3,995.4 						"/>
						<polygon class="st22" points="2290.3,995.4 1605.3,1007.2 1605.3,996.4 1663.7,995.4 						"/>
						<polygon class="st23" points="2631.2,1000.3 1605.3,1018 1605.3,1007.2 2290.3,995.4 2631.2,995.4 						"/>
						<polygon class="st24" points="2631.2,1011.1 1605.3,1028.7 1605.3,1018 2631.2,1000.3 						"/>
						<polygon class="st25" points="2631.2,1021.9 1605.3,1039.5 1605.3,1028.7 2631.2,1011.1 						"/>
						<polygon class="st26" points="2631.2,1032.6 1605.3,1050.2 1605.3,1039.5 2631.2,1021.9 						"/>
						<polygon class="st27" points="2631.2,1043.4 1605.3,1061 1605.3,1050.2 2631.2,1032.6 						"/>
						<polygon class="st28" points="2631.2,1054.1 1605.3,1071.7 1605.3,1061 2631.2,1043.4 						"/>
						<polygon class="st29" points="2631.2,1064.9 1605.3,1082.5 1605.3,1071.7 2631.2,1054.1 						"/>
						<polygon class="st30" points="2631.2,1075.6 1605.3,1093.3 1605.3,1082.5 2631.2,1064.9 						"/>
						<polygon class="st31" points="2631.2,1086.4 1605.3,1104 1605.3,1093.3 2631.2,1075.6 						"/>
						<polygon class="st32" points="2631.2,1097.2 1605.3,1114.8 1605.3,1104 2631.2,1086.4 						"/>
						<polygon class="st33" points="2631.2,1107.9 1605.3,1125.5 1605.3,1114.8 2631.2,1097.2 						"/>
						<polygon class="st34" points="2631.2,1118.7 1605.3,1136.3 1605.3,1125.5 2631.2,1107.9 						"/>
						<polygon class="st35" points="2631.2,1129.4 1605.3,1147.1 1605.3,1136.3 2631.2,1118.7 						"/>
						<polygon class="st36" points="2631.2,1140.2 1605.3,1157.8 1605.3,1147.1 2631.2,1129.4 						"/>
						<polygon class="st37" points="2631.2,1151 1605.3,1168.6 1605.3,1157.8 2631.2,1140.2 						"/>
						<polygon class="st38" points="2631.2,1161.7 1605.3,1179.3 1605.3,1168.6 2631.2,1151 						"/>
						<polygon class="st39" points="2631.2,1172.5 1605.3,1190.1 1605.3,1179.3 2631.2,1161.7 						"/>
						<polygon class="st40" points="2631.2,1183.2 1605.3,1200.8 1605.3,1190.1 2631.2,1172.5 						"/>
						<polygon class="st41" points="2631.2,1194 1605.3,1211.6 1605.3,1200.8 2631.2,1183.2 						"/>
						<polygon class="st42" points="2631.2,1204.7 1605.3,1222.4 1605.3,1211.6 2631.2,1194 						"/>
						<polygon class="st43" points="2631.2,1215.5 1605.3,1233.1 1605.3,1222.4 2631.2,1204.7 						"/>
						<polygon class="st44" points="2631.2,1226.3 1605.3,1243.9 1605.3,1233.1 2631.2,1215.5 						"/>
						<polygon class="st45" points="2631.2,1237 1605.3,1254.6 1605.3,1243.9 2631.2,1226.3 						"/>
						<polygon class="st46" points="2631.2,1247.8 1605.3,1265.4 1605.3,1254.6 2631.2,1237 						"/>
						<polygon class="st47" points="2631.2,1258.5 1605.3,1276.1 1605.3,1265.4 2631.2,1247.8 						"/>
						<polygon class="st48" points="2631.2,1269.3 1605.3,1286.9 1605.3,1276.1 2631.2,1258.5 						"/>
						<polygon class="st49" points="2631.2,1280 1605.3,1297.7 1605.3,1286.9 2631.2,1269.3 						"/>
						<polygon class="st50" points="2631.2,1290.8 1605.3,1308.4 1605.3,1297.7 2631.2,1280 						"/>
						<polygon class="st51" points="2631.2,1301.6 1605.3,1319.2 1605.3,1308.4 2631.2,1290.8 						"/>
						<polygon class="st52" points="2631.2,1312.3 1605.3,1329.9 1605.3,1319.2 2631.2,1301.6 						"/>
						<polygon class="st53" points="2631.2,1323.1 1605.3,1340.7 1605.3,1329.9 2631.2,1312.3 						"/>
						<polygon class="st54" points="2631.2,1333.8 1605.3,1351.5 1605.3,1340.7 2631.2,1323.1 						"/>
						<polygon class="st55" points="2631.2,1344.6 1605.3,1362.2 1605.3,1351.5 2631.2,1333.8 						"/>
						<polygon class="st56" points="2631.2,1355.4 1605.3,1373 1605.3,1362.2 2631.2,1344.6 						"/>
						<polygon class="st57" points="2631.2,1366.1 1605.3,1383.7 1605.3,1373 2631.2,1355.4 						"/>
						<polygon class="st58" points="2631.2,1376.9 1605.3,1394.5 1605.3,1383.7 2631.2,1366.1 						"/>
						<polygon class="st59" points="2631.2,1387.6 1605.3,1405.2 1605.3,1394.5 2631.2,1376.9 						"/>
						<polygon class="st60" points="2631.2,1398.4 1605.3,1416 1605.3,1405.2 2631.2,1387.6 						"/>
						<polygon class="st61" points="2631.2,1409.1 1605.3,1426.8 1605.3,1416 2631.2,1398.4 						"/>
						<polygon class="st62" points="2631.2,1419.9 1605.3,1437.5 1605.3,1426.8 2631.2,1409.1 						"/>
						<polygon class="st63" points="2631.2,1430.7 1605.3,1448.3 1605.3,1437.5 2631.2,1419.9 						"/>
						<polygon class="st64" points="2631.2,1441.4 1605.3,1459 1605.3,1448.3 2631.2,1430.7 						"/>
						<polygon class="st65" points="2631.2,1452.2 1605.3,1469.8 1605.3,1459 2631.2,1441.4 						"/>
						<polygon class="st66" points="2631.2,1462.9 1605.3,1480.5 1605.3,1469.8 2631.2,1452.2 						"/>
						<polygon class="st67" points="2631.2,1473.7 1605.3,1491.3 1605.3,1480.5 2631.2,1462.9 						"/>
						<polygon class="st67" points="1605.3,1491.3 2631.2,1473.7 2631.2,2084.6 1605.3,2084.6 						"/>
					</g>
				</g>
				<g>
					<g>
						<defs>
							<circle id="SVGID_7_" cx="2112.2" cy="802.2" r="156.8"/>
						</defs>
						<clipPath id="SVGID_8_">
							<use xlink:href="#SVGID_7_"  style="overflow:visible;"/>
						</clipPath>
						<polygon class="st68" points="2002.9,645.4 1955.4,646.2 1955.4,645.4 						"/>
						<polygon class="st69" points="2269,651.5 1955.4,656.9 1955.4,646.2 2002.9,645.4 2269,645.4 						"/>
						<polygon class="st70" points="2269,662.3 1955.4,667.7 1955.4,656.9 2269,651.5 						"/>
						<polygon class="st71" points="2269,673.1 1955.4,678.4 1955.4,667.7 2269,662.3 						"/>
						<polygon class="st72" points="2269,683.8 1955.4,689.2 1955.4,678.4 2269,673.1 						"/>
						<polygon class="st73" points="2269,694.6 1955.4,700 1955.4,689.2 2269,683.8 						"/>
						<polygon class="st74" points="2269,705.3 1955.4,710.7 1955.4,700 2269,694.6 						"/>
						<polygon class="st75" points="2269,716.1 1955.4,721.5 1955.4,710.7 2269,705.3 						"/>
						<polygon class="st76" points="2269,726.9 1955.4,732.2 1955.4,721.5 2269,716.1 						"/>
						<polygon class="st77" points="2269,737.6 1955.4,743 1955.4,732.2 2269,726.9 						"/>
						<polygon class="st78" points="2269,748.4 1955.4,753.8 1955.4,743 2269,737.6 						"/>
						<polygon class="st79" points="2269,759.1 1955.4,764.5 1955.4,753.8 2269,748.4 						"/>
						<polygon class="st80" points="2269,769.9 1955.4,775.3 1955.4,764.5 2269,759.1 						"/>
						<polygon class="st81" points="2269,780.6 1955.4,786 1955.4,775.3 2269,769.9 						"/>
						<polygon class="st82" points="2269,791.4 1955.4,796.8 1955.4,786 2269,780.6 						"/>
						<polygon class="st83" points="2269,802.2 1955.4,807.5 1955.4,796.8 2269,791.4 						"/>
						<polygon class="st84" points="2269,812.9 1955.4,818.3 1955.4,807.5 2269,802.2 						"/>
						<polygon class="st85" points="2269,823.7 1955.4,829.1 1955.4,818.3 2269,812.9 						"/>
						<polygon class="st86" points="2269,834.4 1955.4,839.8 1955.4,829.1 2269,823.7 						"/>
						<polygon class="st87" points="2269,845.2 1955.4,850.6 1955.4,839.8 2269,834.4 						"/>
						<polygon class="st88" points="2269,855.9 1955.4,861.3 1955.4,850.6 2269,845.2 						"/>
						<polygon class="st89" points="2269,866.7 1955.4,872.1 1955.4,861.3 2269,855.9 						"/>
						<polygon class="st90" points="2269,877.5 1955.4,882.8 1955.4,872.1 2269,866.7 						"/>
						<polygon class="st91" points="2269,888.2 1955.4,893.6 1955.4,882.8 2269,877.5 						"/>
						<polygon class="st92" points="2269,899 1955.4,904.4 1955.4,893.6 2269,888.2 						"/>
						<polygon class="st93" points="2269,909.7 1955.4,915.1 1955.4,904.4 2269,899 						"/>
						<polygon class="st94" points="2269,920.5 1955.4,925.9 1955.4,915.1 2269,909.7 						"/>
						<polygon class="st95" points="2269,931.3 1955.4,936.6 1955.4,925.9 2269,920.5 						"/>
						<polygon class="st96" points="2269,942 1955.4,947.4 1955.4,936.6 2269,931.3 						"/>
						<polygon class="st97" points="2269,952.8 1955.4,958.2 1955.4,947.4 2269,942 						"/>
						<polygon class="st98" points="1955.4,958.2 2269,952.8 2269,959 1955.4,959 						"/>
					</g>
				</g>
			</g>
		</g>
	</g>
	<g>
		<g>
			<g>
				<defs>
					<path id="SVGID_9_" d="M2819,2128.6H1402.9c-25.2,0-45.6-20.4-45.6-45.6v-161.6c0-25.2,20.4-45.6,45.6-45.6H2819
						c25.2,0,45.6,20.4,45.6,45.6V2083C2864.6,2108.2,2844.2,2128.6,2819,2128.6z"/>
				</defs>
				<clipPath id="SVGID_10_">
					<use xlink:href="#SVGID_9_"  style="overflow:visible;"/>
				</clipPath>
				<polygon class="st99" points="2858.6,2128.6 2862.2,1875.8 2864.6,1875.8 2864.6,2128.6 				"/>
				<polygon class="st100" points="2722.6,2128.6 2726.1,1875.8 2862.2,1875.8 2858.6,2128.6 				"/>
				<polygon class="st101" points="2586.5,2128.6 2590.1,1875.8 2726.1,1875.8 2722.6,2128.6 				"/>
				<polygon class="st102" points="2450.5,2128.6 2454,1875.8 2590.1,1875.8 2586.5,2128.6 				"/>
				<polygon class="st103" points="2314.4,2128.6 2318,1875.8 2454,1875.8 2450.5,2128.6 				"/>
				<polygon class="st104" points="2178.3,2128.6 2181.9,1875.8 2318,1875.8 2314.4,2128.6 				"/>
				<polygon class="st105" points="2042.3,2128.6 2045.8,1875.8 2181.9,1875.8 2178.3,2128.6 				"/>
				<polygon class="st106" points="1906.2,2128.6 1909.8,1875.8 2045.8,1875.8 2042.3,2128.6 				"/>
				<polygon class="st107" points="1770.2,2128.6 1773.7,1875.8 1909.8,1875.8 1906.2,2128.6 				"/>
				<polygon class="st108" points="1634.1,2128.6 1637.7,1875.8 1773.7,1875.8 1770.2,2128.6 				"/>
				<polygon class="st109" points="1498.1,2128.6 1501.6,1875.8 1637.7,1875.8 1634.1,2128.6 				"/>
				<polygon class="st110" points="1362,2128.6 1365.6,1875.8 1501.6,1875.8 1498.1,2128.6 				"/>
				<polygon class="st111" points="1365.6,1875.8 1362,2128.6 1357.3,2128.6 1357.3,1875.8 				"/>
			</g>
		</g>
		<g>
			<g>
				
					<ellipse transform="matrix(0.2298 -0.9732 0.9732 0.2298 -809.9964 2985.7329)" class="st112" cx="1481.3" cy="2004.6" rx="34" ry="34"/>
			</g>
			<g>
				
					<ellipse transform="matrix(0.7071 -0.7071 0.7071 0.7071 -946.5734 1723.9774)" class="st112" cx="1607.7" cy="2004.6" rx="34" ry="34"/>
			</g>
			<g>
				
					<ellipse transform="matrix(0.7071 -0.7071 0.7071 0.7071 -909.5464 1813.3684)" class="st112" cx="1734.2" cy="2004.6" rx="34" ry="34"/>
			</g>
			<g>
				
					<ellipse transform="matrix(0.7071 -0.7071 0.7071 0.7071 -872.5195 1902.7594)" class="st112" cx="1860.6" cy="2004.6" rx="34" ry="34"/>
			</g>
			<g>
				
					<ellipse transform="matrix(0.1602 -0.9871 0.9871 0.1602 -310.0085 3644.8364)" class="st112" cx="1987" cy="2004.6" rx="34" ry="34"/>
			</g>
			<g>
				
					<ellipse transform="matrix(0.1602 -0.9871 0.9871 0.1602 -202.5505 3771.1382)" class="st112" cx="2114.9" cy="2004.6" rx="34" ry="34"/>
			</g>
			<g>
				<circle class="st112" cx="2237.8" cy="2004.6" r="34"/>
			</g>
		</g>
	</g>
	<g>
		<g>
			<g>
				<defs>
					<path id="SVGID_11_" d="M2819,1802.8H1402.9c-25.2,0-45.6-20.4-45.6-45.6v-161.6c0-25.2,20.4-45.6,45.6-45.6H2819
						c25.2,0,45.6,20.4,45.6,45.6v161.6C2864.6,1782.4,2844.2,1802.8,2819,1802.8z"/>
				</defs>
				<clipPath id="SVGID_12_">
					<use xlink:href="#SVGID_11_"  style="overflow:visible;"/>
				</clipPath>
				<polygon class="st113" points="2829.3,1802.8 2828.5,1550 2864.6,1550 2864.6,1802.8 				"/>
				<polygon class="st114" points="2721.1,1802.8 2720.3,1550 2828.5,1550 2829.3,1802.8 				"/>
				<polygon class="st115" points="2612.8,1802.8 2612.1,1550 2720.3,1550 2721.1,1802.8 				"/>
				<polygon class="st116" points="2504.6,1802.8 2503.9,1550 2612.1,1550 2612.8,1802.8 				"/>
				<polygon class="st117" points="2396.4,1802.8 2395.6,1550 2503.9,1550 2504.6,1802.8 				"/>
				<polygon class="st118" points="2288.2,1802.8 2287.4,1550 2395.6,1550 2396.4,1802.8 				"/>
				<polygon class="st119" points="2179.9,1802.8 2179.2,1550 2287.4,1550 2288.2,1802.8 				"/>
				<polygon class="st120" points="2071.7,1802.8 2071,1550 2179.2,1550 2179.9,1802.8 				"/>
				<polygon class="st121" points="1963.5,1802.8 1962.7,1550 2071,1550 2071.7,1802.8 				"/>
				<polygon class="st122" points="1855.3,1802.8 1854.5,1550 1962.7,1550 1963.5,1802.8 				"/>
				<polygon class="st123" points="1747,1802.8 1746.3,1550 1854.5,1550 1855.3,1802.8 				"/>
				<polygon class="st124" points="1638.8,1802.8 1638.1,1550 1746.3,1550 1747,1802.8 				"/>
				<polygon class="st125" points="1530.6,1802.8 1529.8,1550 1638.1,1550 1638.8,1802.8 				"/>
				<polygon class="st126" points="1422.4,1802.8 1421.6,1550 1529.8,1550 1530.6,1802.8 				"/>
				<polygon class="st127" points="1421.6,1550 1422.4,1802.8 1357.3,1802.8 1357.3,1550 				"/>
			</g>
		</g>
		<g>
			<path class="st112" d="M2096.4,1705.6h-619.9c-16.1,0-29.2-13.1-29.2-29.2l0,0c0-16.1,13.1-29.2,29.2-29.2h619.9
				c16.1,0,29.2,13.1,29.2,29.2l0,0C2125.6,1692.5,2112.5,1705.6,2096.4,1705.6z"/>
		</g>
		<g>
			<path class="st112" d="M2568,1705.6h-342.8c-16.1,0-29.2-13.1-29.2-29.2l0,0c0-16.1,13.1-29.2,29.2-29.2H2568
				c16.1,0,29.2,13.1,29.2,29.2l0,0C2597.2,1692.5,2584.1,1705.6,2568,1705.6z"/>
		</g>
	</g>
	<g>
		<g>
			<defs>
				<path id="SVGID_13_" d="M2363.9,2474.9h-463.1c-46.4,0-84-37.6-84-84v-47c0-46.4,37.6-84,84-84h463.1c46.4,0,84,37.6,84,84v47
					C2448,2437.3,2410.4,2474.9,2363.9,2474.9z"/>
			</defs>
			<clipPath id="SVGID_14_">
				<use xlink:href="#SVGID_13_"  style="overflow:visible;"/>
			</clipPath>
			<polygon class="st128" points="2448,2376.8 2444.2,2259.9 2448,2259.9 			"/>
			<polygon class="st129" points="2441.4,2474.9 2434.5,2259.9 2444.2,2259.9 2448,2376.8 2448,2474.9 			"/>
			<polygon class="st130" points="2431.6,2474.9 2424.7,2259.9 2434.5,2259.9 2441.4,2474.9 			"/>
			<polygon class="st131" points="2421.9,2474.9 2415,2259.9 2424.7,2259.9 2431.6,2474.9 			"/>
			<polygon class="st132" points="2412.1,2474.9 2405.2,2259.9 2415,2259.9 2421.9,2474.9 			"/>
			<polygon class="st133" points="2402.3,2474.9 2395.5,2259.9 2405.2,2259.9 2412.1,2474.9 			"/>
			<polygon class="st134" points="2392.6,2474.9 2385.7,2259.9 2395.5,2259.9 2402.3,2474.9 			"/>
			<polygon class="st135" points="2382.8,2474.9 2375.9,2259.9 2385.7,2259.9 2392.6,2474.9 			"/>
			<polygon class="st136" points="2373.1,2474.9 2366.2,2259.9 2375.9,2259.9 2382.8,2474.9 			"/>
			<polygon class="st137" points="2363.3,2474.9 2356.4,2259.9 2366.2,2259.9 2373.1,2474.9 			"/>
			<polygon class="st138" points="2353.6,2474.9 2346.7,2259.9 2356.4,2259.9 2363.3,2474.9 			"/>
			<polygon class="st139" points="2343.8,2474.9 2336.9,2259.9 2346.7,2259.9 2353.6,2474.9 			"/>
			<polygon class="st140" points="2334.1,2474.9 2327.2,2259.9 2336.9,2259.9 2343.8,2474.9 			"/>
			<polygon class="st141" points="2324.3,2474.9 2317.4,2259.9 2327.2,2259.9 2334.1,2474.9 			"/>
			<polygon class="st142" points="2314.6,2474.9 2307.7,2259.9 2317.4,2259.9 2324.3,2474.9 			"/>
			<polygon class="st143" points="2304.8,2474.9 2297.9,2259.9 2307.7,2259.9 2314.6,2474.9 			"/>
			<polygon class="st144" points="2295,2474.9 2288.2,2259.9 2297.9,2259.9 2304.8,2474.9 			"/>
			<polygon class="st145" points="2285.3,2474.9 2278.4,2259.9 2288.2,2259.9 2295,2474.9 			"/>
			<polygon class="st146" points="2275.5,2474.9 2268.6,2259.9 2278.4,2259.9 2285.3,2474.9 			"/>
			<polygon class="st147" points="2265.8,2474.9 2258.9,2259.9 2268.6,2259.9 2275.5,2474.9 			"/>
			<polygon class="st148" points="2256,2474.9 2249.1,2259.9 2258.9,2259.9 2265.8,2474.9 			"/>
			<polygon class="st149" points="2246.3,2474.9 2239.4,2259.9 2249.1,2259.9 2256,2474.9 			"/>
			<polygon class="st150" points="2236.5,2474.9 2229.6,2259.9 2239.4,2259.9 2246.3,2474.9 			"/>
			<polygon class="st151" points="2226.8,2474.9 2219.9,2259.9 2229.6,2259.9 2236.5,2474.9 			"/>
			<polygon class="st152" points="2217,2474.9 2210.1,2259.9 2219.9,2259.9 2226.8,2474.9 			"/>
			<polygon class="st153" points="2207.3,2474.9 2200.4,2259.9 2210.1,2259.9 2217,2474.9 			"/>
			<polygon class="st154" points="2197.5,2474.9 2190.6,2259.9 2200.4,2259.9 2207.3,2474.9 			"/>
			<polygon class="st155" points="2187.7,2474.9 2180.8,2259.9 2190.6,2259.9 2197.5,2474.9 			"/>
			<polygon class="st156" points="2178,2474.9 2171.1,2259.9 2180.8,2259.9 2187.7,2474.9 			"/>
			<polygon class="st157" points="2168.2,2474.9 2161.3,2259.9 2171.1,2259.9 2178,2474.9 			"/>
			<polygon class="st158" points="2158.5,2474.9 2151.6,2259.9 2161.3,2259.9 2168.2,2474.9 			"/>
			<polygon class="st159" points="2148.7,2474.9 2141.8,2259.9 2151.6,2259.9 2158.5,2474.9 			"/>
			<polygon class="st160" points="2139,2474.9 2132.1,2259.9 2141.8,2259.9 2148.7,2474.9 			"/>
			<polygon class="st161" points="2129.2,2474.9 2122.3,2259.9 2132.1,2259.9 2139,2474.9 			"/>
			<polygon class="st162" points="2119.5,2474.9 2112.6,2259.9 2122.3,2259.9 2129.2,2474.9 			"/>
			<polygon class="st163" points="2109.7,2474.9 2102.8,2259.9 2112.6,2259.9 2119.5,2474.9 			"/>
			<polygon class="st164" points="2099.9,2474.9 2093.1,2259.9 2102.8,2259.9 2109.7,2474.9 			"/>
			<polygon class="st165" points="2090.2,2474.9 2083.3,2259.9 2093.1,2259.9 2099.9,2474.9 			"/>
			<polygon class="st166" points="2080.4,2474.9 2073.5,2259.9 2083.3,2259.9 2090.2,2474.9 			"/>
			<polygon class="st167" points="2070.7,2474.9 2063.8,2259.9 2073.5,2259.9 2080.4,2474.9 			"/>
			<polygon class="st168" points="2060.9,2474.9 2054,2259.9 2063.8,2259.9 2070.7,2474.9 			"/>
			<polygon class="st169" points="2051.2,2474.9 2044.3,2259.9 2054,2259.9 2060.9,2474.9 			"/>
			<polygon class="st170" points="2041.4,2474.9 2034.5,2259.9 2044.3,2259.9 2051.2,2474.9 			"/>
			<polygon class="st171" points="2031.7,2474.9 2024.8,2259.9 2034.5,2259.9 2041.4,2474.9 			"/>
			<polygon class="st172" points="2021.9,2474.9 2015,2259.9 2024.8,2259.9 2031.7,2474.9 			"/>
			<polygon class="st173" points="2012.2,2474.9 2005.3,2259.9 2015,2259.9 2021.9,2474.9 			"/>
			<polygon class="st174" points="2002.4,2474.9 1995.5,2259.9 2005.3,2259.9 2012.2,2474.9 			"/>
			<polygon class="st175" points="1992.6,2474.9 1985.8,2259.9 1995.5,2259.9 2002.4,2474.9 			"/>
			<polygon class="st176" points="1982.9,2474.9 1976,2259.9 1985.8,2259.9 1992.6,2474.9 			"/>
			<polygon class="st177" points="1973.1,2474.9 1966.2,2259.9 1976,2259.9 1982.9,2474.9 			"/>
			<polygon class="st178" points="1963.4,2474.9 1956.5,2259.9 1966.2,2259.9 1973.1,2474.9 			"/>
			<polygon class="st179" points="1953.6,2474.9 1946.7,2259.9 1956.5,2259.9 1963.4,2474.9 			"/>
			<polygon class="st180" points="1943.9,2474.9 1937,2259.9 1946.7,2259.9 1953.6,2474.9 			"/>
			<polygon class="st181" points="1934.1,2474.9 1927.2,2259.9 1937,2259.9 1943.9,2474.9 			"/>
			<polygon class="st182" points="1924.4,2474.9 1917.5,2259.9 1927.2,2259.9 1934.1,2474.9 			"/>
			<polygon class="st183" points="1914.6,2474.9 1907.7,2259.9 1917.5,2259.9 1924.4,2474.9 			"/>
			<polygon class="st184" points="1904.8,2474.9 1898,2259.9 1907.7,2259.9 1914.6,2474.9 			"/>
			<polygon class="st185" points="1895.1,2474.9 1888.2,2259.9 1898,2259.9 1904.8,2474.9 			"/>
			<polygon class="st186" points="1885.3,2474.9 1878.4,2259.9 1888.2,2259.9 1895.1,2474.9 			"/>
			<polygon class="st187" points="1875.6,2474.9 1868.7,2259.9 1878.4,2259.9 1885.3,2474.9 			"/>
			<polygon class="st188" points="1865.8,2474.9 1858.9,2259.9 1868.7,2259.9 1875.6,2474.9 			"/>
			<polygon class="st189" points="1856.1,2474.9 1849.2,2259.9 1858.9,2259.9 1865.8,2474.9 			"/>
			<polygon class="st190" points="1846.3,2474.9 1839.4,2259.9 1849.2,2259.9 1856.1,2474.9 			"/>
			<polygon class="st191" points="1836.6,2474.9 1829.7,2259.9 1839.4,2259.9 1846.3,2474.9 			"/>
			<polygon class="st191" points="1829.7,2259.9 1836.6,2474.9 1816.8,2474.9 1816.8,2259.9 			"/>
		</g>
	</g>
</g>
<g>
	<g>
		<g>
			<g>
				<g>
					<defs>
						<polygon id="SVGID_15_" points="645.5,3960.1 615.5,3960.1 752.4,3205 821.8,3216.2 						"/>
					</defs>
					<clipPath id="SVGID_16_">
						<use xlink:href="#SVGID_15_"  style="overflow:visible;"/>
					</clipPath>
					<polygon class="st192" points="821.8,3205.5 615.5,3207.6 615.5,3205 821.8,3205 					"/>
					<polygon class="st193" points="821.8,3220.4 615.5,3222.5 615.5,3207.6 821.8,3205.5 					"/>
					<polygon class="st194" points="821.8,3235.4 615.5,3237.5 615.5,3222.5 821.8,3220.4 					"/>
					<polygon class="st195" points="821.8,3250.4 615.5,3252.5 615.5,3237.5 821.8,3235.4 					"/>
					<polygon class="st196" points="821.8,3265.3 615.5,3267.5 615.5,3252.5 821.8,3250.4 					"/>
					<polygon class="st197" points="821.8,3280.3 615.5,3282.4 615.5,3267.5 821.8,3265.3 					"/>
					<polygon class="st198" points="821.8,3295.3 615.5,3297.4 615.5,3282.4 821.8,3280.3 					"/>
					<polygon class="st199" points="821.8,3310.2 615.5,3312.4 615.5,3297.4 821.8,3295.3 					"/>
					<polygon class="st200" points="821.8,3325.2 615.5,3327.3 615.5,3312.4 821.8,3310.2 					"/>
					<polygon class="st201" points="821.8,3340.2 615.5,3342.3 615.5,3327.3 821.8,3325.2 					"/>
					<polygon class="st202" points="821.8,3355.2 615.5,3357.3 615.5,3342.3 821.8,3340.2 					"/>
					<polygon class="st203" points="821.8,3370.1 615.5,3372.2 615.5,3357.3 821.8,3355.2 					"/>
					<polygon class="st204" points="821.8,3385.1 615.5,3387.2 615.5,3372.2 821.8,3370.1 					"/>
					<polygon class="st205" points="821.8,3400.1 615.5,3402.2 615.5,3387.2 821.8,3385.1 					"/>
					<polygon class="st206" points="821.8,3415 615.5,3417.2 615.5,3402.2 821.8,3400.1 					"/>
					<polygon class="st207" points="821.8,3430 615.5,3432.1 615.5,3417.2 821.8,3415 					"/>
					<polygon class="st208" points="821.8,3445 615.5,3447.1 615.5,3432.1 821.8,3430 					"/>
					<polygon class="st209" points="821.8,3460 615.5,3462.1 615.5,3447.1 821.8,3445 					"/>
					<polygon class="st210" points="821.8,3474.9 615.5,3477 615.5,3462.1 821.8,3460 					"/>
					<polygon class="st211" points="821.8,3489.9 615.5,3492 615.5,3477 821.8,3474.9 					"/>
					<polygon class="st212" points="821.8,3504.9 615.5,3507 615.5,3492 821.8,3489.9 					"/>
					<polygon class="st213" points="821.8,3519.8 615.5,3522 615.5,3507 821.8,3504.9 					"/>
					<polygon class="st214" points="821.8,3534.8 615.5,3536.9 615.5,3522 821.8,3519.8 					"/>
					<polygon class="st215" points="821.8,3549.8 615.5,3551.9 615.5,3536.9 821.8,3534.8 					"/>
					<polygon class="st216" points="821.8,3564.8 615.5,3566.9 615.5,3551.9 821.8,3549.8 					"/>
					<polygon class="st217" points="821.8,3579.7 615.5,3581.8 615.5,3566.9 821.8,3564.8 					"/>
					<polygon class="st218" points="821.8,3594.7 615.5,3596.8 615.5,3581.8 821.8,3579.7 					"/>
					<polygon class="st219" points="821.8,3609.7 615.5,3611.8 615.5,3596.8 821.8,3594.7 					"/>
					<polygon class="st220" points="821.8,3624.6 615.5,3626.8 615.5,3611.8 821.8,3609.7 					"/>
					<polygon class="st221" points="821.8,3639.6 615.5,3641.7 615.5,3626.8 821.8,3624.6 					"/>
					<polygon class="st222" points="821.8,3654.6 615.5,3656.7 615.5,3641.7 821.8,3639.6 					"/>
					<polygon class="st223" points="821.8,3669.5 615.5,3671.7 615.5,3656.7 821.8,3654.6 					"/>
					<polygon class="st224" points="821.8,3684.5 615.5,3686.6 615.5,3671.7 821.8,3669.5 					"/>
					<polygon class="st225" points="821.8,3699.5 615.5,3701.6 615.5,3686.6 821.8,3684.5 					"/>
					<polygon class="st226" points="821.8,3714.5 615.5,3716.6 615.5,3701.6 821.8,3699.5 					"/>
					<polygon class="st227" points="821.8,3729.4 615.5,3731.5 615.5,3716.6 821.8,3714.5 					"/>
					<polygon class="st228" points="821.8,3744.4 615.5,3746.5 615.5,3731.5 821.8,3729.4 					"/>
					<polygon class="st229" points="821.8,3759.4 615.5,3761.5 615.5,3746.5 821.8,3744.4 					"/>
					<polygon class="st230" points="821.8,3774.3 615.5,3776.5 615.5,3761.5 821.8,3759.4 					"/>
					<polygon class="st231" points="821.8,3789.3 615.5,3791.4 615.5,3776.5 821.8,3774.3 					"/>
					<polygon class="st232" points="821.8,3804.3 615.5,3806.4 615.5,3791.4 821.8,3789.3 					"/>
					<polygon class="st233" points="821.8,3819.3 615.5,3821.4 615.5,3806.4 821.8,3804.3 					"/>
					<polygon class="st234" points="821.8,3834.2 615.5,3836.3 615.5,3821.4 821.8,3819.3 					"/>
					<polygon class="st235" points="821.8,3849.2 615.5,3851.3 615.5,3836.3 821.8,3834.2 					"/>
					<polygon class="st236" points="821.8,3864.2 615.5,3866.3 615.5,3851.3 821.8,3849.2 					"/>
					<polygon class="st237" points="821.8,3879.1 615.5,3881.3 615.5,3866.3 821.8,3864.2 					"/>
					<polygon class="st238" points="821.8,3894.1 615.5,3896.2 615.5,3881.3 821.8,3879.1 					"/>
					<polygon class="st239" points="821.8,3909.1 615.5,3911.2 615.5,3896.2 821.8,3894.1 					"/>
					<polygon class="st240" points="821.8,3924.1 615.5,3926.2 615.5,3911.2 821.8,3909.1 					"/>
					<polygon class="st241" points="821.8,3939 615.5,3941.1 615.5,3926.2 821.8,3924.1 					"/>
					<polygon class="st242" points="821.8,3954 615.5,3956.1 615.5,3941.1 821.8,3939 					"/>
					<polygon class="st243" points="615.5,3956.1 821.8,3954 821.8,3960.1 615.5,3960.1 					"/>
				</g>
			</g>
			<g>
				<g>
					<defs>
						<polygon id="SVGID_17_" points="1333.9,3955.1 1365.8,3955.1 1238.3,3210.6 1167,3221.8 						"/>
					</defs>
					<clipPath id="SVGID_18_">
						<use xlink:href="#SVGID_17_"  style="overflow:visible;"/>
					</clipPath>
					<polygon class="st244" points="1363.3,3210.6 1363.3,3214.9 1167,3216.9 1167,3210.6 					"/>
					<polygon class="st245" points="1363.3,3214.9 1363.5,3229.9 1167,3231.9 1167,3216.9 					"/>
					<polygon class="st246" points="1363.5,3229.9 1363.7,3244.9 1167,3246.9 1167,3231.9 					"/>
					<polygon class="st247" points="1363.7,3244.9 1363.8,3259.8 1167,3261.9 1167,3246.9 					"/>
					<polygon class="st248" points="1363.8,3259.8 1364,3274.8 1167,3276.8 1167,3261.9 					"/>
					<polygon class="st249" points="1364,3274.8 1364.1,3289.8 1167,3291.8 1167,3276.8 					"/>
					<polygon class="st250" points="1364.1,3289.8 1364.3,3304.8 1167,3306.8 1167,3291.8 					"/>
					<polygon class="st251" points="1364.3,3304.8 1364.4,3319.7 1167,3321.7 1167,3306.8 					"/>
					<polygon class="st252" points="1364.4,3319.7 1364.6,3334.7 1167,3336.7 1167,3321.7 					"/>
					<polygon class="st253" points="1364.6,3334.7 1364.7,3349.7 1167,3351.7 1167,3336.7 					"/>
					<polygon class="st254" points="1364.7,3349.7 1364.9,3364.6 1167,3366.7 1167,3351.7 					"/>
					<polygon class="st255" points="1364.9,3364.6 1365,3379.6 1167,3381.6 1167,3366.7 					"/>
					<polygon class="st256" points="1365,3379.6 1365.2,3394.6 1167,3396.6 1167,3381.6 					"/>
					<polygon class="st257" points="1365.2,3394.6 1365.3,3409.5 1167,3411.6 1167,3396.6 					"/>
					<polygon class="st258" points="1365.3,3409.5 1365.5,3424.5 1167,3426.5 1167,3411.6 					"/>
					<polygon class="st259" points="1365.5,3424.5 1365.7,3439.5 1167,3441.5 1167,3426.5 					"/>
					<polygon class="st260" points="1365.7,3439.5 1365.8,3454.5 1167,3456.5 1167,3441.5 					"/>
					<polygon class="st261" points="1365.8,3454.5 1365.8,3456.1 1365.8,3469.4 1167,3471.5 1167,3456.5 					"/>
					<polygon class="st262" points="1365.8,3484.4 1167,3486.4 1167,3471.5 1365.8,3469.4 					"/>
					<polygon class="st263" points="1365.8,3499.4 1167,3501.4 1167,3486.4 1365.8,3484.4 					"/>
					<polygon class="st264" points="1365.8,3514.3 1167,3516.4 1167,3501.4 1365.8,3499.4 					"/>
					<polygon class="st265" points="1365.8,3529.3 1167,3531.3 1167,3516.4 1365.8,3514.3 					"/>
					<polygon class="st266" points="1365.8,3544.3 1167,3546.3 1167,3531.3 1365.8,3529.3 					"/>
					<polygon class="st267" points="1365.8,3559.3 1167,3561.3 1167,3546.3 1365.8,3544.3 					"/>
					<polygon class="st268" points="1365.8,3574.2 1167,3576.3 1167,3561.3 1365.8,3559.3 					"/>
					<polygon class="st269" points="1365.8,3589.2 1167,3591.2 1167,3576.3 1365.8,3574.2 					"/>
					<polygon class="st270" points="1365.8,3604.2 1167,3606.2 1167,3591.2 1365.8,3589.2 					"/>
					<polygon class="st271" points="1365.8,3619.1 1167,3621.2 1167,3606.2 1365.8,3604.2 					"/>
					<polygon class="st272" points="1365.8,3634.1 1167,3636.1 1167,3621.2 1365.8,3619.1 					"/>
					<polygon class="st273" points="1365.8,3649.1 1167,3651.1 1167,3636.1 1365.8,3634.1 					"/>
					<polygon class="st274" points="1365.8,3664.1 1167,3666.1 1167,3651.1 1365.8,3649.1 					"/>
					<polygon class="st275" points="1365.8,3679 1167,3681.1 1167,3666.1 1365.8,3664.1 					"/>
					<polygon class="st276" points="1365.8,3694 1167,3696 1167,3681.1 1365.8,3679 					"/>
					<polygon class="st277" points="1365.8,3709 1167,3711 1167,3696 1365.8,3694 					"/>
					<polygon class="st278" points="1365.8,3723.9 1167,3726 1167,3720.8 1167,3711 1365.8,3709 					"/>
					<polygon class="st279" points="1365.8,3738.9 1167.2,3740.9 1167,3726 1365.8,3723.9 					"/>
					<polygon class="st280" points="1365.8,3753.9 1167.3,3755.9 1167.2,3740.9 1365.8,3738.9 					"/>
					<polygon class="st281" points="1365.8,3768.9 1167.5,3770.9 1167.3,3755.9 1365.8,3753.9 					"/>
					<polygon class="st282" points="1365.8,3783.8 1167.7,3785.9 1167.5,3770.9 1365.8,3768.9 					"/>
					<polygon class="st283" points="1365.8,3798.8 1167.8,3800.8 1167.7,3785.9 1365.8,3783.8 					"/>
					<polygon class="st284" points="1365.8,3813.8 1168,3815.8 1167.8,3800.8 1365.8,3798.8 					"/>
					<polygon class="st285" points="1365.8,3828.7 1168.1,3830.8 1168,3815.8 1365.8,3813.8 					"/>
					<polygon class="st286" points="1365.8,3843.7 1168.3,3845.7 1168.1,3830.8 1365.8,3828.7 					"/>
					<polygon class="st287" points="1365.8,3858.7 1168.4,3860.7 1168.3,3845.7 1365.8,3843.7 					"/>
					<polygon class="st288" points="1365.8,3873.7 1168.6,3875.7 1168.4,3860.7 1365.8,3858.7 					"/>
					<polygon class="st289" points="1365.8,3888.6 1168.7,3890.6 1168.6,3875.7 1365.8,3873.7 					"/>
					<polygon class="st290" points="1365.8,3903.6 1168.9,3905.6 1168.7,3890.6 1365.8,3888.6 					"/>
					<polygon class="st291" points="1365.8,3918.6 1169,3920.6 1168.9,3905.6 1365.8,3903.6 					"/>
					<polygon class="st292" points="1365.8,3933.5 1169.2,3935.6 1169,3920.6 1365.8,3918.6 					"/>
					<polygon class="st293" points="1365.8,3948.5 1169.3,3950.5 1169.2,3935.6 1365.8,3933.5 					"/>
					<polygon class="st294" points="1169.4,3955.1 1169.3,3950.5 1365.8,3948.5 1365.8,3955.1 					"/>
				</g>
			</g>
			<g>
				<g>
					<defs>
						<polygon id="SVGID_19_" points="1020.7,3958.9 1052.6,3958.9 1046.9,3214.3 971.9,3225.5 						"/>
					</defs>
					<clipPath id="SVGID_20_">
						<use xlink:href="#SVGID_19_"  style="overflow:visible;"/>
					</clipPath>
					<polygon class="st295" points="1052.1,3214.3 1052.1,3218.1 971.9,3218.9 971.9,3214.3 					"/>
					<polygon class="st296" points="1052.1,3218.1 1052.2,3233.1 971.9,3233.9 971.9,3218.9 					"/>
					<polygon class="st297" points="1052.2,3233.1 1052.4,3248 971.9,3248.9 971.9,3233.9 					"/>
					<polygon class="st298" points="1052.4,3248 1052.6,3263 971.9,3263.8 971.9,3248.9 					"/>
					<polygon class="st299" points="1052.6,3263 1052.6,3263.9 1052.6,3278 971.9,3278.8 971.9,3263.8 					"/>
					<polygon class="st300" points="1052.6,3293 971.9,3293.8 971.9,3278.8 1052.6,3278 					"/>
					<polygon class="st301" points="1052.6,3307.9 971.9,3308.7 971.9,3293.8 1052.6,3293 					"/>
					<polygon class="st302" points="1052.6,3322.9 971.9,3323.7 971.9,3308.7 1052.6,3307.9 					"/>
					<polygon class="st303" points="1052.6,3337.9 971.9,3338.7 971.9,3323.7 1052.6,3322.9 					"/>
					<polygon class="st304" points="1052.6,3352.8 971.9,3353.7 971.9,3338.7 1052.6,3337.9 					"/>
					<polygon class="st305" points="1052.6,3367.8 971.9,3368.6 971.9,3353.7 1052.6,3352.8 					"/>
					<polygon class="st306" points="1052.6,3382.8 971.9,3383.6 971.9,3368.6 1052.6,3367.8 					"/>
					<polygon class="st307" points="1052.6,3397.7 971.9,3398.6 971.9,3383.6 1052.6,3382.8 					"/>
					<polygon class="st308" points="1052.6,3412.7 971.9,3413.5 971.9,3398.6 1052.6,3397.7 					"/>
					<polygon class="st309" points="1052.6,3427.7 971.9,3428.5 971.9,3413.5 1052.6,3412.7 					"/>
					<polygon class="st310" points="1052.6,3442.7 971.9,3443.5 971.9,3428.5 1052.6,3427.7 					"/>
					<polygon class="st311" points="1052.6,3457.6 971.9,3458.5 971.9,3443.5 1052.6,3442.7 					"/>
					<polygon class="st312" points="1052.6,3472.6 971.9,3473.4 971.9,3458.5 1052.6,3457.6 					"/>
					<polygon class="st313" points="1052.6,3487.6 971.9,3488.4 971.9,3473.4 1052.6,3472.6 					"/>
					<polygon class="st314" points="1052.6,3502.5 971.9,3503.4 971.9,3488.4 1052.6,3487.6 					"/>
					<polygon class="st315" points="1052.6,3517.5 971.9,3518.3 971.9,3503.4 1052.6,3502.5 					"/>
					<polygon class="st316" points="1052.6,3532.5 971.9,3533.3 971.9,3518.3 1052.6,3517.5 					"/>
					<polygon class="st317" points="1052.6,3547.5 971.9,3548.3 971.9,3533.3 1052.6,3532.5 					"/>
					<polygon class="st318" points="1052.6,3562.4 971.9,3563.3 971.9,3548.3 1052.6,3547.5 					"/>
					<polygon class="st319" points="1052.6,3577.4 971.9,3578.2 971.9,3563.3 1052.6,3562.4 					"/>
					<polygon class="st320" points="1052.6,3592.4 971.9,3593.2 971.9,3578.2 1052.6,3577.4 					"/>
					<polygon class="st321" points="1052.6,3607.3 971.9,3608.2 971.9,3593.2 1052.6,3592.4 					"/>
					<polygon class="st322" points="1052.6,3622.3 971.9,3623.1 971.9,3608.2 1052.6,3607.3 					"/>
					<polygon class="st323" points="1052.6,3637.3 971.9,3638.1 971.9,3623.1 1052.6,3622.3 					"/>
					<polygon class="st324" points="1052.6,3652.3 971.9,3653.1 971.9,3638.1 1052.6,3637.3 					"/>
					<polygon class="st325" points="1052.6,3667.2 971.9,3668.1 971.9,3653.1 1052.6,3652.3 					"/>
					<polygon class="st326" points="1052.6,3682.2 971.9,3683 971.9,3668.1 1052.6,3667.2 					"/>
					<polygon class="st327" points="1052.6,3697.2 971.9,3698 971.9,3683 1052.6,3682.2 					"/>
					<polygon class="st328" points="1052.6,3712.1 971.9,3713 971.9,3698 1052.6,3697.2 					"/>
					<polygon class="st329" points="1052.6,3727.1 971.9,3727.9 971.9,3724.5 971.9,3713 1052.6,3712.1 					"/>
					<polygon class="st330" points="1052.6,3742.1 972.1,3742.9 971.9,3727.9 1052.6,3727.1 					"/>
					<polygon class="st331" points="1052.6,3757.1 972.2,3757.9 972.1,3742.9 1052.6,3742.1 					"/>
					<polygon class="st332" points="1052.6,3772 972.4,3772.9 972.2,3757.9 1052.6,3757.1 					"/>
					<polygon class="st333" points="1052.6,3787 972.6,3787.8 972.4,3772.9 1052.6,3772 					"/>
					<polygon class="st334" points="1052.6,3802 972.7,3802.8 972.6,3787.8 1052.6,3787 					"/>
					<polygon class="st335" points="1052.6,3816.9 972.9,3817.8 972.7,3802.8 1052.6,3802 					"/>
					<polygon class="st336" points="1052.6,3831.9 973,3832.7 972.9,3817.8 1052.6,3816.9 					"/>
					<polygon class="st337" points="1052.6,3846.9 973.2,3847.7 973,3832.7 1052.6,3831.9 					"/>
					<polygon class="st338" points="1052.6,3861.9 973.3,3862.7 973.2,3847.7 1052.6,3846.9 					"/>
					<polygon class="st339" points="1052.6,3876.8 973.5,3877.6 973.3,3862.7 1052.6,3861.9 					"/>
					<polygon class="st340" points="1052.6,3891.8 973.6,3892.6 973.5,3877.6 1052.6,3876.8 					"/>
					<polygon class="st341" points="1052.6,3906.8 973.8,3907.6 973.6,3892.6 1052.6,3891.8 					"/>
					<polygon class="st342" points="1052.6,3921.7 973.9,3922.5 973.8,3907.6 1052.6,3906.8 					"/>
					<polygon class="st343" points="1052.6,3936.7 974.1,3937.5 973.9,3922.5 1052.6,3921.7 					"/>
					<polygon class="st344" points="1052.6,3951.7 974.2,3952.5 974.1,3937.5 1052.6,3936.7 					"/>
					<polygon class="st345" points="974.3,3958.9 974.2,3952.5 1052.6,3951.7 1052.6,3958.9 					"/>
				</g>
			</g>
		</g>
		<g>
			<g>
				<defs>
					<path id="SVGID_21_" d="M482.3,2806.6v137.8c0,211.1,172.4,382.3,385,382.3h440.3c54,0,88.6-57.1,63.3-104.5L1093.2,2703
						c-37.8-70.8-112.5-114.4-193.2-112.9l-207.5,3.9C575.8,2596.1,482.3,2690.6,482.3,2806.6z"/>
				</defs>
				<clipPath id="SVGID_22_">
					<use xlink:href="#SVGID_21_"  style="overflow:visible;"/>
				</clipPath>
				<polygon class="st346" points="1280.4,3326.7 1196.4,2588.5 1396.2,2588.5 1396.2,3326.7 				"/>
				<polygon class="st346" points="1265.8,3326.7 1181.8,2588.5 1196.4,2588.5 1280.4,3326.7 				"/>
				<polygon class="st347" points="1251.2,3326.7 1167.2,2588.5 1181.8,2588.5 1265.8,3326.7 				"/>
				<polygon class="st348" points="1236.6,3326.7 1152.6,2588.5 1167.2,2588.5 1251.2,3326.7 				"/>
				<polygon class="st349" points="1222,3326.7 1138,2588.5 1152.6,2588.5 1236.6,3326.7 				"/>
				<polygon class="st350" points="1207.4,3326.7 1123.5,2588.5 1138,2588.5 1222,3326.7 				"/>
				<polygon class="st351" points="1192.8,3326.7 1108.9,2588.5 1123.5,2588.5 1207.4,3326.7 				"/>
				<polygon class="st352" points="1178.3,3326.7 1094.3,2588.5 1108.9,2588.5 1192.8,3326.7 				"/>
				<polygon class="st353" points="1163.7,3326.7 1079.7,2588.5 1094.3,2588.5 1178.3,3326.7 				"/>
				<polygon class="st354" points="1149.1,3326.7 1065.1,2588.5 1079.7,2588.5 1163.7,3326.7 				"/>
				<polygon class="st355" points="1134.5,3326.7 1050.5,2588.5 1065.1,2588.5 1149.1,3326.7 				"/>
				<polygon class="st356" points="1119.9,3326.7 1035.9,2588.5 1050.5,2588.5 1134.5,3326.7 				"/>
				<polygon class="st357" points="1105.3,3326.7 1021.3,2588.5 1035.9,2588.5 1119.9,3326.7 				"/>
				<polygon class="st358" points="1090.7,3326.7 1006.7,2588.5 1021.3,2588.5 1105.3,3326.7 				"/>
				<polygon class="st359" points="1076.1,3326.7 992.1,2588.5 1006.7,2588.5 1090.7,3326.7 				"/>
				<polygon class="st360" points="1061.5,3326.7 977.5,2588.5 992.1,2588.5 1076.1,3326.7 				"/>
				<polygon class="st361" points="1046.9,3326.7 962.9,2588.5 977.5,2588.5 1061.5,3326.7 				"/>
				<polygon class="st362" points="1032.3,3326.7 948.4,2588.5 962.9,2588.5 1046.9,3326.7 				"/>
				<polygon class="st363" points="1017.7,3326.7 933.8,2588.5 948.4,2588.5 1032.3,3326.7 				"/>
				<polygon class="st364" points="1003.2,3326.7 919.2,2588.5 933.8,2588.5 1017.7,3326.7 				"/>
				<polygon class="st365" points="988.6,3326.7 904.6,2588.5 919.2,2588.5 1003.2,3326.7 				"/>
				<polygon class="st366" points="974,3326.7 890,2588.5 904.6,2588.5 988.6,3326.7 				"/>
				<polygon class="st367" points="959.4,3326.7 875.4,2588.5 890,2588.5 974,3326.7 				"/>
				<polygon class="st368" points="944.8,3326.7 860.8,2588.5 875.4,2588.5 959.4,3326.7 				"/>
				<polygon class="st369" points="930.2,3326.7 846.2,2588.5 860.8,2588.5 944.8,3326.7 				"/>
				<polygon class="st370" points="915.6,3326.7 831.6,2588.5 846.2,2588.5 930.2,3326.7 				"/>
				<polygon class="st371" points="901,3326.7 817,2588.5 831.6,2588.5 915.6,3326.7 				"/>
				<polygon class="st372" points="886.4,3326.7 802.4,2588.5 817,2588.5 901,3326.7 				"/>
				<polygon class="st373" points="871.8,3326.7 787.8,2588.5 802.4,2588.5 886.4,3326.7 				"/>
				<polygon class="st374" points="857.2,3326.7 773.3,2588.5 787.8,2588.5 871.8,3326.7 				"/>
				<polygon class="st375" points="842.6,3326.7 758.7,2588.5 773.3,2588.5 857.2,3326.7 				"/>
				<polygon class="st376" points="828.1,3326.7 744.1,2588.5 758.7,2588.5 842.6,3326.7 				"/>
				<polygon class="st377" points="813.5,3326.7 729.5,2588.5 744.1,2588.5 828.1,3326.7 				"/>
				<polygon class="st378" points="798.9,3326.7 714.9,2588.5 729.5,2588.5 813.5,3326.7 				"/>
				<polygon class="st379" points="784.3,3326.7 700.3,2588.5 714.9,2588.5 798.9,3326.7 				"/>
				<polygon class="st380" points="769.7,3326.7 685.7,2588.5 700.3,2588.5 784.3,3326.7 				"/>
				<polygon class="st381" points="755.1,3326.7 671.1,2588.5 685.7,2588.5 769.7,3326.7 				"/>
				<polygon class="st382" points="740.5,3326.7 656.5,2588.5 671.1,2588.5 755.1,3326.7 				"/>
				<polygon class="st383" points="725.9,3326.7 641.9,2588.5 656.5,2588.5 740.5,3326.7 				"/>
				<polygon class="st384" points="711.3,3326.7 627.3,2588.5 641.9,2588.5 725.9,3326.7 				"/>
				<polygon class="st385" points="696.7,3326.7 612.7,2588.5 627.3,2588.5 711.3,3326.7 				"/>
				<polygon class="st386" points="682.1,3326.7 598.2,2588.5 612.7,2588.5 696.7,3326.7 				"/>
				<polygon class="st387" points="667.5,3326.7 583.7,2590 596.6,2588.5 598.2,2588.5 682.1,3326.7 				"/>
				<polygon class="st388" points="653,3326.7 569.3,2591.6 583.7,2590 667.5,3326.7 				"/>
				<polygon class="st389" points="638.4,3326.7 554.9,2593.3 569.3,2591.6 653,3326.7 				"/>
				<polygon class="st390" points="623.8,3326.7 540.5,2594.9 554.9,2593.3 638.4,3326.7 				"/>
				<polygon class="st391" points="609.2,3326.7 526.1,2596.6 540.5,2594.9 623.8,3326.7 				"/>
				<polygon class="st392" points="594.6,3326.7 511.7,2598.2 526.1,2596.6 609.2,3326.7 				"/>
				<polygon class="st393" points="580,3326.7 497.3,2599.8 511.7,2598.2 594.6,3326.7 				"/>
				<polygon class="st394" points="565.4,3326.7 482.9,2601.5 497.3,2599.8 580,3326.7 				"/>
				<polygon class="st395" points="550.8,3326.7 482.3,2724.3 482.3,2601.5 482.9,2601.5 565.4,3326.7 				"/>
				<polygon class="st396" points="536.2,3326.7 482.3,2852.5 482.3,2724.3 550.8,3326.7 				"/>
				<polygon class="st397" points="521.6,3326.7 482.3,2980.8 482.3,2852.5 536.2,3326.7 				"/>
				<polygon class="st398" points="507,3326.7 482.3,3109 482.3,2980.8 521.6,3326.7 				"/>
				<polygon class="st399" points="492.4,3326.7 482.3,3237.3 482.3,3109 507,3326.7 				"/>
				<polygon class="st400" points="482.3,3237.3 492.4,3326.7 482.3,3326.7 				"/>
			</g>
		</g>
	</g>
	<g>
		<path class="st0" d="M928.5,3254.2c-45.2-4.2-87.5-21.6-122.4-50.4c-34.9-28.8-59.8-66.9-72.2-110.3l-27.8-97.3
			c-0.3-1.1,0.3-2.3,1.5-2.7c1.1-0.3,2.3,0.3,2.7,1.5l27.8,97.3c24.5,86,101.2,149.3,190.8,157.6L928.5,3254.2z"/>
	</g>
</g>
<g class="st401">
	<ellipse class="st112" cx="2084" cy="3965.6" rx="1819.3" ry="51.4"/>
</g>
<g>
	<g>
		<rect x="3130.7" y="3712.2" class="st402" width="103.1" height="130.3"/>
	</g>
	<g>
		<rect x="3321.3" y="3712.2" class="st402" width="103.1" height="130.3"/>
	</g>
	<g>
		<path class="st112" d="M3321.8,3810.9l-38.9,62.2l-40.8,26.3l-13.6,73.9h231.5l-2.4-27.9c-0.3-4-1.7-7.9-4-11.2l-7.2-10.5
			l-22.4-107l0,0c-32.6,13.5-69.6,11.7-100.7-5.1L3321.8,3810.9z"/>
	</g>
	<g>
		<path class="st112" d="M3129.7,3809.9l-72.9,70l-97.1,16.3c-6.2,0.5-11.7,4-14.7,9.3l-20.4,36.1l-2.9,0.8
			c-6.4,1.8-10.7,7.6-10.7,14.2v16.1h208.6l0,0c13.8-8.6,31.4-8.7,45.3-0.1l2.1,1.3h107.7l-1.2-21.8c-0.4-7.9-4.2-15.3-10.4-20.2
			l0,0l-27.2-116.7l-22,4.4c-23.8,4.8-48.5,3-71.3-5.2L3129.7,3809.9z"/>
	</g>
	<g>
		<path class="st0" d="M3274.6,3975.9c-1,0-1.8-0.8-1.8-1.7l-1.2-21.8c-0.4-7.4-4-14.3-9.7-18.9l-0.5-0.4l-10-42.9
			c-0.2-1,0.4-2,1.4-2.2c1-0.2,2,0.4,2.2,1.4l9.7,41.6c6.3,5.3,10.2,12.9,10.6,21.1l1.2,21.8c0.1,1-0.7,1.9-1.7,2
			C3274.7,3975.9,3274.6,3975.9,3274.6,3975.9z"/>
	</g>
	<g>
		<path class="st0" d="M2934.2,3941.6c-1,0-1.8-0.8-1.8-1.8c0-1,0.8-1.9,1.8-1.9l317.3-6.6c1,0,1.9,0.8,1.9,1.8c0,1-0.8,1.9-1.8,1.9
			L2934.2,3941.6C2934.3,3941.6,2934.3,3941.6,2934.2,3941.6z"/>
	</g>
	<g>
		<path class="st0" d="M3276.3,3937.9c-1,0-1.8-0.8-1.8-1.7c-0.1-1,0.7-1.9,1.7-1.9l161.9-8.8c1,0,1.9,0.7,1.9,1.7
			c0.1,1-0.7,1.9-1.7,1.9l-161.9,8.8C3276.4,3937.9,3276.4,3937.9,3276.3,3937.9z"/>
	</g>
	<g>
		<path class="st403" d="M3108.9,1647.3c-4.9-2.2-11.3,2.5-10.7,7.9c4.7,1.6,9.7,2.3,14.7,2.3c1.8,0,3.7-0.2,4.9-1.5
			c2.2-2.2,0.6-6.4-2.2-7.8c-2.8-1.4-6.2-0.8-9.3-0.2"/>
	</g>
	<g>
		<path class="st402" d="M2640.7,2047l-91.7-76.9l-20.6-6.7l-106.2-2.3l0,0c-0.1,12.2,7.9,17,19.9,19.1l62.6,11.1l-26.5,29.2
			c-6.5,7.2-7.5,17.8-2.5,26.1l24.3,32.9c4.1,6.7,11.7,10.5,19.5,9.7l6.1-0.7c8.6-0.9,17.2,3,20.3-5l0,0l57.1,33.6l28.1-19.1
			L2640.7,2047z"/>
	</g>
	<g>
		<path class="st402" d="M3104.5,1584.2l7.6,166.4c4.7,44.8,42.4,78.9,87.5,78.9h73.8l38.8-128.6l18.5-38.8
			c15.8-33.1,20-70.5,11.9-106.3l-9.9-24.4c-1.4-6-4.6-11.4-9.4-15.4v0c-66.6-56.3-167.5-60.9-215,12.3l9.7,0
			C3107.2,1544.9,3102.4,1564.6,3104.5,1584.2z"/>
	</g>
	<g>
		<path class="st402" d="M3300.7,1868.8c0.7,4.6,1.4,9.5-0.2,13.8c-3.6,9.5-15.8,11.7-26,12.4c-21.4,1.5-42.8,3.1-64.2,4.6
			c-4,0.3-8.5,0.5-11.8-1.9c-3.3-2.4-4.5-6.6-5.5-10.5c-8.6-34-14.4-68.7-17.4-103.7c-1.1-12.8-0.9-27.9,9.2-35.9
			c6.9-5.4,16.3-5.9,25-5.9c26.1-0.3,67.9,2,76.8,33C3295.2,1804,3296,1838.5,3300.7,1868.8z"/>
	</g>
	<g>
		<path class="st404" d="M3435.4,2441.9c5.8,7.8,0,188,0,188l-375.9,11.6l-5.8-255.8L3435.4,2441.9z"/>
	</g>
	<g>
		<path class="st405" d="M3483.8,1901.2c9.3,14,109.6,245.4,153,343.9c11,25,9.4,53.7-4.2,77.3l0,0c-21.9,38-65.1,58.3-108.3,50.9
			l-201.3-34.3L3483.8,1901.2z"/>
	</g>
	<g>
		<path class="st405" d="M3483.8,1901.2l-170.5-56.2l-127.9,5.8l-170.5,52.3l-13.6,139.5l24.2,320.2c1.9,25.2,9.3,49.7,21.7,71.8
			l0,0c5.3,9.5,14.3,16.5,24.9,19.3l54.9,14.5c83,22,170,25,254.4,8.9l31.2-6c14.6-2.8,27.4-11.2,35.8-23.5l0.7-1
			c10.1-14.7,16.1-31.8,17.6-49.6l32.6-385.6L3483.8,1901.2z"/>
	</g>
	<g>
		<path class="st405" d="M3014.9,1903.2l-159,228.4l-157.7-82.1c-14.7-7.6-30.4-13-46.7-16l-29.7-5.4l-14,14
			c-12.8,12.8-18.8,30.8-16.2,48.7l3.4,23.4l21,32.6c4.4,6.9,10.3,12.7,17.3,17l223.1,138.1c25.5,15.8,58.4,11.8,79.4-9.6
			l230.6-234.7L3014.9,1903.2z"/>
	</g>
	<g>
		<path class="st404" d="M3057.5,2581.4l48.4,1170.4l15.3,5.1c35.1,11.7,73.3,10.3,107.4-3.9l16.8-7l9.7-1184L3057.5,2581.4z"/>
	</g>
	<g>
		<path class="st404" d="M3437.3,2575.6l5.8,1158.8l0,0c-37.3,25.3-85.1,29.2-126,10.3l-9.7-4.5c0,0-54.3-1145.3-56.2-1151.1
			C3249.3,2583.4,3437.3,2575.6,3437.3,2575.6z"/>
	</g>
	<g>
		<path class="st112" d="M3290,1783l-74.2-8.2c-7.8-0.9-14.2-6.6-16-14.2l-16.4-70.6l-38.8-15.5l-5.8-40.7l-27.1-31l0,0
			c-13.2-12-19-30.1-15.2-47.5l2.1-9.6c4.7-21.9,17.1-41.4,34.9-55h0c54.7-41.7,131.3-38.1,182,8.3l4.5,4.1
			c16.9,15.5,27.6,36.6,30.3,59.4l1.5,12.8c5.2,45.7-3.1,92-23.9,133.1L3290,1783z"/>
	</g>
	<g>
		<path class="st402" d="M3182.6,1673c3.1,14.2,2.3,29.6-2.3,43.2c-1.7,5.1-3.9,10-7.3,13.6c-3.4,3.6-8.1,5.7-12.5,4.5
			c-4.5-1.2-8.1-5.7-10.2-10.7c-5.7-14.1-8.7-42.8-0.8-56.7C3159.7,1649,3178.1,1651.9,3182.6,1673z"/>
	</g>
	<g>
		<path class="st405" d="M3338.5,1868.3c-5.8-3.9-34.9-52.3-34.9-52.3l-26.5-3c-27.1-3.1-54.6,0.6-79.9,10.7l-29.2,11.7l-7.8,44.6
			L3338.5,1868.3z"/>
	</g>
	<g>
		<path d="M3171.8,1811.8c-0.2,0-0.4,0-0.6-0.1c-0.9-0.3-1.3-1.3-0.9-2.2c7.7-19.4,12.6-39.8,14.5-60.6c0.1-0.9,0.9-1.6,1.8-1.5
			c0.9,0.1,1.6,0.9,1.5,1.8c-2,21.1-6.9,41.8-14.7,61.5C3173.1,1811.4,3172.5,1811.8,3171.8,1811.8z"/>
	</g>
	<g>
		<path d="M3161.1,1736.7c-2.9,0-5.8-0.8-8.4-2.5c-0.8-0.5-1-1.5-0.5-2.3c0.5-0.8,1.5-1,2.3-0.5c6.9,4.6,16.9,0.2,21.5-6.5
			c5.1-7.4,5.9-17,6.6-25.5c0.1-0.9,0.9-1.6,1.8-1.5c0.9,0.1,1.6,0.9,1.5,1.8c-0.7,8.5-1.6,19-7.2,27.1
			C3174.9,1732.6,3167.9,1736.7,3161.1,1736.7z"/>
	</g>
	<g>
		<path d="M3168,1710.1c-0.9,0-1.6-0.7-1.7-1.6c-0.5-10.3-3.5-20.4-8.6-29.3c-0.5-0.8-0.2-1.8,0.6-2.3c0.8-0.5,1.8-0.2,2.3,0.6
			c5.4,9.3,8.5,20,9.1,30.8C3169.8,1709.3,3169,1710.1,3168,1710.1C3168.1,1710.1,3168.1,1710.1,3168,1710.1z"/>
	</g>
	<g>
		<path d="M3178.4,1859.1c-0.8,0-1.5-0.5-1.6-1.3c-0.2-0.9,0.4-1.8,1.3-2c44.8-9.5,90.7-12.7,136.4-9.3c0.9,0.1,1.6,0.9,1.5,1.8
			c-0.1,0.9-0.9,1.6-1.8,1.5c-45.4-3.3-90.9-0.2-135.4,9.3C3178.6,1859.1,3178.5,1859.1,3178.4,1859.1z"/>
	</g>
	<g>
		<path d="M2831.3,2160.3c-0.4,0-0.7-0.1-1-0.4c-0.7-0.6-0.8-1.6-0.3-2.3l19.7-24.7c0.6-0.7,1.6-0.8,2.3-0.3
			c0.7,0.6,0.8,1.6,0.3,2.3l-19.7,24.7C2832.3,2160.1,2831.8,2160.3,2831.3,2160.3z"/>
	</g>
	<g>
		<path d="M3011.8,2214.8c-0.3,0-0.7-0.1-1-0.3c-0.7-0.5-0.9-1.6-0.3-2.3c10.9-14.8,24.4-33.5,36.2-50c9.1-12.7,16.9-23.6,21.6-29.9
			c0.6-0.7,1.6-0.9,2.3-0.3c0.7,0.6,0.9,1.6,0.3,2.3c-4.6,6.2-12.5,17.2-21.5,29.8c-11.9,16.6-25.3,35.3-36.2,50.1
			C3012.9,2214.6,3012.3,2214.8,3011.8,2214.8z"/>
	</g>
	<g>
		<path d="M3062.1,2001.7c0,0-0.1,0-0.1,0c-0.9-0.1-1.6-0.8-1.6-1.8c1.9-32.4-12.1-65.8-36.6-87.2c-0.7-0.6-0.8-1.7-0.2-2.4
			c0.6-0.7,1.7-0.8,2.4-0.2c25.3,22,39.7,56.4,37.7,89.9C3063.7,2001,3062.9,2001.7,3062.1,2001.7z"/>
	</g>
	<g>
		<path d="M3463,2355.4c-0.1,0-0.1,0-0.2,0c-0.9-0.1-1.6-0.9-1.5-1.8c8.9-93.6,12.1-188.7,9.5-282.7c0-0.9,0.7-1.7,1.6-1.7
			c0,0,0,0,0,0c0.9,0,1.6,0.7,1.7,1.6c2.7,94.1-0.5,189.4-9.5,283.1C3464.6,2354.7,3463.9,2355.4,3463,2355.4z"/>
	</g>
	<g>
		<path class="st0" d="M3204.6,2678.6c-0.8,0-1.5-0.6-1.6-1.4c-0.1-0.9,0.5-1.8,1.4-1.9c58.3-9.2,117.9-12.5,176.9-9.6
			c0.9,0,1.6,0.8,1.6,1.7c0,0.9-0.8,1.6-1.7,1.6c-58.8-2.9-118.1,0.4-176.2,9.6C3204.7,2678.6,3204.6,2678.6,3204.6,2678.6z"/>
	</g>
	<g>
		<path class="st0" d="M3156.3,3176c-0.8,0-1.5-0.5-1.6-1.3c-0.2-0.9,0.4-1.8,1.3-2c25.2-5.1,50.8-5.8,76.2-2.1
			c0.9,0.1,1.5,1,1.4,1.9c-0.1,0.9-1,1.5-1.9,1.4c-25-3.6-50.3-3-75,2C3156.5,3176,3156.4,3176,3156.3,3176z"/>
	</g>
	<g>
		<path class="st0" d="M3433.4,3168.4c-0.1,0-0.2,0-0.3,0c-29.4-5.3-59.2-5.4-88.5-0.2c-0.9,0.2-1.8-0.4-1.9-1.4
			c-0.2-0.9,0.4-1.8,1.4-1.9c29.8-5.3,60-5.2,89.7,0.2c0.9,0.2,1.5,1,1.3,1.9C3434.9,3167.8,3434.2,3168.4,3433.4,3168.4z"/>
	</g>
	<g>
		<path d="M2546.1,2085.3c-0.4,0-0.9-0.2-1.2-0.5c-11.8-12-25.1-22.6-39.3-31.6c-0.8-0.5-1-1.5-0.5-2.3c0.5-0.8,1.5-1,2.3-0.5
			c14.5,9.1,27.9,19.9,39.9,32.1c0.6,0.7,0.6,1.7,0,2.4C2546.9,2085.1,2546.5,2085.3,2546.1,2085.3z"/>
	</g>
	<g>
		<path d="M2513.8,2027.6c-0.2,0-0.5,0-0.7-0.2c-7.3-3.4-15.5-5.1-23.6-5c0,0,0,0,0,0c-0.9,0-1.7-0.7-1.7-1.6c0-0.9,0.7-1.7,1.6-1.7
			c8.6-0.2,17.2,1.7,25,5.3c0.8,0.4,1.2,1.4,0.8,2.2C2515,2027.3,2514.4,2027.6,2513.8,2027.6z"/>
	</g>
	<g>
		<path d="M2527.5,2012.7c-0.2,0-0.5,0-0.7-0.1c-10.5-4.7-22.1-6.9-33.6-6.2c-0.8,0.1-1.7-0.6-1.8-1.6c-0.1-0.9,0.6-1.7,1.6-1.8
			c12-0.7,24.2,1.5,35.2,6.5c0.8,0.4,1.2,1.4,0.8,2.2C2528.7,2012.3,2528.1,2012.7,2527.5,2012.7z"/>
	</g>
	<g>
		<path d="M2540.3,1994.6c-0.1,0-0.3,0-0.4-0.1c-12.2-3.1-24.8-4.5-37.4-4.3c0,0,0,0,0,0c-0.9,0-1.7-0.7-1.7-1.6
			c0-0.9,0.7-1.7,1.6-1.7c12.9-0.2,25.8,1.2,38.3,4.4c0.9,0.2,1.4,1.1,1.2,2C2541.7,1994.1,2541,1994.6,2540.3,1994.6z"/>
	</g>
</g>
</svg>
